<?xml version="1.0" encoding="utf-8"?>
<!-- Generator: Adobe Illustrator 26.0.3, SVG Export Plug-In . SVG Version: 6.00 Build 0)  -->
<svg version="1.1" id="Layer_1" xmlns="http://www.w3.org/2000/svg" xmlns:xlink="http://www.w3.org/1999/xlink" x="0px" y="0px"
	 viewBox="0 0 243.17 79.59" style="enable-background:new 0 0 243.17 79.59;" xml:space="preserve">
<style type="text/css">
	.st0{fill:#4B00B6;}
	.st1{fill:#FE0000;}
</style>
<g>
	<path class="st0" d="M241.91,24.72c-0.11-0.12-0.24-0.23-0.36-0.34c-4.3-3.62-7.26-8.39-8.55-13.8c-0.47-1.94-0.71-3.97-0.71-6.03
		c0-2.5-2.04-4.54-4.54-4.54l-32.68,0c-2.5,0-4.54,2.04-4.54,4.54c0,2.06-0.24,4.1-0.72,6.05c-1.29,5.4-4.25,10.17-8.55,13.78
		c-0.13,0.11-0.26,0.24-0.37,0.35c-1.38,1.45-1.65,3.67-0.65,5.4l27.23,47.19c0.81,1.4,2.32,2.27,3.93,2.27
		c1.62,0,3.12-0.87,3.93-2.27l27.24-47.18C243.57,28.4,243.3,26.18,241.91,24.72z M227.77,21.79c0.22,0.39,0.44,0.77,0.68,1.15
		c0.2,0.33,0.42,0.65,0.63,0.97c0.23,0.35,0.47,0.7,0.71,1.05c0.27,0.37,0.56,0.74,0.84,1.1c0.21,0.27,0.42,0.55,0.64,0.82
		c0.52,0.63,1.07,1.24,1.63,1.84l-8.94,15.48c-1.13-2.93-1.7-6.04-1.7-9.26c0-5.34,1.59-10.42,4.62-14.75
		c0.11,0.22,0.24,0.42,0.35,0.63C227.41,21.14,227.58,21.47,227.77,21.79z M213.18,34.94c0,6.68,1.86,13.06,5.38,18.62l-7.17,12.41
		l-21.5-37.26c4.28-4.46,7.3-9.98,8.74-15.98c0.29-1.19,0.52-2.41,0.68-3.65l24.18,0c0.04,0.32,0.1,0.63,0.15,0.95
		C216.97,16.58,213.18,25.51,213.18,34.94z"/>
	<g>
		<circle class="st1" cx="205.68" cy="20.91" r="4.54"/>
	</g>
	<g>
		<g>
			<path class="st1" d="M87.84,55.09c-0.13-0.02-0.23-0.04-0.31-0.04c-0.45,0-0.74,0.21-0.88,0.62c-0.02,0.09-0.04,0.18-0.04,0.27
				c0,0.46,0.22,0.76,0.66,0.89c0.07,0.02,0.15,0.02,0.25,0.02c0.44,0,0.74-0.2,0.9-0.59c0.02-0.09,0.04-0.2,0.04-0.32
				C88.47,55.53,88.26,55.25,87.84,55.09z"/>
			<g>
				<path class="st1" d="M23.13,68.97c-0.42,0-0.7,0.19-0.84,0.58c-0.02,0.08-0.02,0.17-0.02,0.28c0,0.42,0.19,0.7,0.58,0.84
					c0.08,0.03,0.17,0.05,0.26,0.05c0.24,0,0.45-0.08,0.65-0.25s0.29-0.36,0.29-0.59c0-0.44-0.19-0.72-0.58-0.84
					C23.35,68.99,23.24,68.97,23.13,68.97z"/>
				<path class="st1" d="M32.9,63.63c-0.31-0.66-0.87-1.12-1.7-1.4c-0.42,0-0.71,0.11-0.88,0.33s-0.23,0.52-0.19,0.9l-0.15-0.02
					c-0.28,0-0.59,0.04-0.9,0.13c-0.32,0.09-0.65,0.27-1.01,0.56c-0.36,0.28-0.75,0.43-1.18,0.43h-0.2c-1.02,0-1.75-0.14-2.18-0.43
					c0.13-0.06,0.25-0.12,0.38-0.15c0.91-0.42,1.38-0.92,1.41-1.51c0.03-0.55-0.48-1-1.54-1.33c-0.85-0.21-1.66-0.31-2.41-0.31
					c-0.76,0-1.36,0.08-1.81,0.24c-0.42,0.17-0.76,0.4-1.01,0.7c-0.26,0.32-0.4,0.64-0.42,0.94c-0.03,0.37,0.1,0.58,0.4,0.63
					c0.29,0.04,0.53-0.06,0.72-0.29c0.31-0.32,0.48-0.5,0.52-0.52c0.32-0.2,0.91-0.29,1.76-0.26c0.85,0.03,1.47,0.16,1.84,0.38
					c-1.13,0.47-2.1,1-2.9,1.59c-0.8,0.59-1.47,1.22-2,1.87c-0.53,0.65-0.94,1.32-1.22,2c-0.28,0.68-0.45,1.36-0.53,2.03
					c-0.11,1.75,0.37,3.1,1.44,4.06c1.07,0.95,2.48,1.31,4.23,1.08c1.75-0.23,3.17-1.15,4.24-2.76c0.05-0.2,0.03-0.35-0.04-0.47
					c-0.08-0.12-0.19-0.18-0.34-0.18c-0.15-0.01-0.33,0.04-0.53,0.15c-0.21,0.11-0.43,0.28-0.68,0.5c-1.49,1.3-3.04,1.71-4.65,1.25
					c-1.6-0.47-2.35-1.7-2.27-3.68c0.12-1.4,0.77-2.65,1.96-3.74c0.61-0.54,1.25-1.02,1.92-1.44c0.72,0.75,1.78,1.14,3.19,1.16h0.91
					v-0.02c0.38-0.02,0.72-0.11,1.01-0.3c0.34-0.23,0.7-0.46,1.06-0.71s0.75-0.27,1.18-0.08c0.09,0.07,0.25,0.17,0.46,0.29
					c0.22,0.14,0.49,0.24,0.79,0.28c0.42,0,0.76-0.16,1.03-0.48s0.38-0.63,0.33-0.93C32.94,63.95,32.93,63.8,32.9,63.63z"/>
				<path class="st1" d="M42.34,68.8c-0.11-0.02-0.21-0.04-0.31-0.04c-0.48,0-0.79,0.2-0.91,0.6c-0.01,0.11-0.01,0.21-0.01,0.3
					c0,0.46,0.21,0.77,0.63,0.93c0.1,0.02,0.19,0.02,0.3,0.02c0.43,0,0.71-0.2,0.85-0.6c0.03-0.11,0.05-0.22,0.05-0.33
					C42.93,69.22,42.74,68.93,42.34,68.8z"/>
				<path class="st1" d="M50.35,63.63c-0.31-0.66-0.87-1.12-1.7-1.4c-0.42,0-0.71,0.11-0.88,0.33s-0.23,0.52-0.19,0.9l-0.15-0.02
					c-0.28,0-0.59,0.04-0.9,0.13c-0.32,0.09-0.65,0.27-1.01,0.56c-0.35,0.28-0.73,0.41-1.14,0.42c-0.31-0.01-0.56-0.09-0.75-0.26
					c-0.2-0.18-0.3-0.47-0.32-0.87c0-0.49-0.17-0.77-0.5-0.84c-0.07,0-0.14,0-0.21,0c-0.36,0-0.59,0.2-0.69,0.59
					c-0.2,0.54-0.51,0.91-0.94,1.12c-0.43,0.21-0.97,0.3-1.61,0.27h-0.08c-0.75,0.11-1.3,0.46-1.65,1.04c-0.37,0.7-0.7,1.27-1,1.73
					s-0.61,0.86-0.95,1.2c-0.27,0.25-0.55,0.48-0.84,0.67c-0.29,0.19-0.61,0.37-0.96,0.54c-0.52,0.31-0.78,0.59-0.78,0.85
					c0,0.13,0.05,0.24,0.14,0.35c0.09,0.11,0.26,0.16,0.52,0.16c0.48-0.05,1.01-0.24,1.58-0.58c1.25-0.74,2.26-1.85,3.04-3.36
					c0.29-0.55,0.59-0.92,0.9-1.1h0.17v-0.01c1.48-0.01,2.45-0.39,2.9-1.13c0.12,0.25,0.26,0.44,0.42,0.6
					c0.16,0.15,0.33,0.27,0.52,0.34c0.19,0.08,0.38,0.13,0.58,0.15c0.17,0.02,0.33,0.03,0.49,0.04v0.01c0.01,0,0.02,0,0.03,0
					c0.02,0,0.03,0,0.05,0v-0.01c0.42-0.01,0.8-0.11,1.12-0.32c0.34-0.23,0.7-0.46,1.06-0.71s0.75-0.27,1.18-0.08
					c0.09,0.07,0.25,0.17,0.46,0.29c0.22,0.14,0.49,0.24,0.79,0.28c0.42,0,0.76-0.16,1.03-0.48s0.38-0.63,0.33-0.93
					C50.4,63.95,50.38,63.8,50.35,63.63z"/>
				<path class="st1" d="M54.82,61.66c-0.63,0.01-1.13,0.3-1.48,0.87c-0.3,0.45-0.45,1.03-0.45,1.73c0,0.84,0.38,1.26,1.14,1.26
					c0.13,0,0.4-0.04,0.79-0.12c-0.06,0.65-0.33,1.23-0.81,1.75c-0.49,0.52-1.03,0.89-1.63,1.11c-0.55,0.21-0.83,0.5-0.82,0.87
					c0.01,0.36,0.24,0.55,0.69,0.55c0.3,0.01,0.77-0.12,1.41-0.39c0.58-0.29,1.17-0.85,1.77-1.67c0.59-0.82,0.89-1.98,0.89-3.49
					c-0.03-0.55-0.14-1.07-0.32-1.54C55.71,61.97,55.32,61.67,54.82,61.66z"/>
				<path class="st1" d="M78.99,55.25c0.2,0,0.41-0.1,0.64-0.31c1.04-0.95,3.71-3.19,8-6.71c0.47-0.36,0.7-0.68,0.7-0.95
					c0-0.16-0.08-0.32-0.24-0.5c-0.09-0.12-0.2-0.18-0.34-0.18c-0.19,0-0.55,0.19-1.07,0.57c-0.95,0.71-2.32,1.83-4.12,3.34
					s-3.19,2.74-4.19,3.68c-0.08,0.08-0.12,0.17-0.12,0.29c0,0.26,0.13,0.48,0.39,0.65C78.75,55.21,78.87,55.25,78.99,55.25z"/>
				<path class="st1" d="M84.3,68.65c-0.1-0.03-0.2-0.05-0.3-0.05c-0.43,0-0.72,0.21-0.88,0.62c-0.03,0.09-0.05,0.19-0.05,0.3
					c0,0.25,0.09,0.47,0.27,0.66c0.18,0.19,0.4,0.28,0.65,0.28c0.45,0,0.74-0.23,0.88-0.68c0.04-0.07,0.06-0.16,0.06-0.26
					C84.94,69.1,84.73,68.81,84.3,68.65z"/>
				<path class="st1" d="M82.13,68.71c-0.09-0.04-0.17-0.06-0.26-0.06c-0.45,0-0.74,0.21-0.87,0.63c-0.04,0.09-0.06,0.19-0.06,0.27
					c0,0.25,0.09,0.47,0.28,0.65c0.19,0.18,0.4,0.27,0.65,0.27c0.43,0,0.72-0.21,0.89-0.64c0.02-0.09,0.02-0.19,0.02-0.28
					C82.78,69.12,82.57,68.84,82.13,68.71z"/>
				<path class="st1" d="M87.47,58.88c-0.44,0.04-0.83,0.31-1.17,0.81c-0.35,0.5-0.52,1.03-0.52,1.57c0,0.89,0.39,1.33,1.17,1.33
					c0.1,0,0.21-0.01,0.33-0.02c0.06-0.03,0.13-0.05,0.2-0.07c0.17-0.07,0.31-0.11,0.43-0.11c0.33,0,0.48,0.21,0.44,0.63
					c-0.06,1.02-0.99,1.53-2.79,1.53h-0.12c-0.33,0-0.6-0.09-0.79-0.27c-0.2-0.18-0.3-0.47-0.32-0.87c0-0.49-0.17-0.77-0.5-0.84
					c-0.07,0-0.14,0-0.21,0c-0.36,0-0.59,0.2-0.69,0.59c-0.2,0.54-0.51,0.91-0.94,1.12c-0.43,0.21-0.97,0.3-1.61,0.27h-0.06
					c-0.9,0-1.35-1.02-1.35-3.05c0-0.42,0.03-0.85,0.08-1.29c0.13-0.93,0.29-2.3,0.47-4.09c0.02-0.19-0.04-0.35-0.18-0.49
					c-0.15-0.14-0.33-0.21-0.54-0.21c-0.36,0-0.58,0.3-0.65,0.89c-0.11,0.78-0.22,1.62-0.33,2.5c-0.13,1.13-0.36,2.12-0.7,2.95
					c-0.4,0.89-1.53,1.63-3.39,2.22c-1.7,0.55-3.38,0.83-5.04,0.83c-1.04,0.02-1.95-0.14-2.72-0.46s-1.15-0.85-1.15-1.57
					c0-0.52-0.01-0.86-0.02-1.02c-0.1-0.42-0.3-0.63-0.63-0.63c-0.59,0.05-0.85,0.43-0.76,1.15c0,0.16,0,0.3,0,0.42
					c0,1.55,0.71,2.58,2.14,3.08c1.05,0.36,2.21,0.54,3.49,0.54c1.77,0,3.46-0.25,5.08-0.75c1.65-0.51,2.89-1.23,3.73-2.15
					c0.03,0.85,0.31,1.5,0.82,1.95c0.52,0.45,1.05,0.67,1.61,0.67h0.31v-0.01c1.41-0.03,2.35-0.4,2.79-1.13
					c0.12,0.25,0.26,0.44,0.42,0.6c0.16,0.15,0.33,0.27,0.52,0.34c0.19,0.08,0.38,0.13,0.58,0.15c0.12,0.02,0.23,0.02,0.34,0.03
					v0.02h0.52c1.43,0,2.49-0.39,3.17-1.16c0.62-0.67,0.94-1.58,0.94-2.74c0-0.97-0.29-1.79-0.88-2.46
					C88.47,59.09,87.97,58.81,87.47,58.88z"/>
				<path class="st1" d="M93.32,53.19C93.19,53.06,93.04,53,92.86,53c-0.41,0.03-0.64,0.29-0.68,0.76
					c-0.06,0.54-0.09,2.34-0.11,5.41c-0.02,2.85-0.11,4.67-0.26,5.48c-0.01,0.2-0.01,0.39-0.01,0.58c0,0.62,0.16,0.91,0.49,0.89
					c0.52-0.03,0.84-0.47,0.96-1.32c0.09-0.71,0.15-1.54,0.19-2.49c0.04-0.93,0.06-2.37,0.05-4.33c-0.03-1.9-0.03-3.34,0.01-4.33
					C93.51,53.47,93.45,53.31,93.32,53.19z"/>
				<path class="st1" d="M104.32,68.84c-0.08-0.02-0.18-0.04-0.3-0.04c-0.21,0-0.42,0.08-0.63,0.24c-0.21,0.16-0.31,0.35-0.31,0.57
					c0,0.42,0.21,0.73,0.62,0.93c0.1,0.04,0.17,0.06,0.24,0.06c0.46,0,0.77-0.22,0.93-0.67c0.04-0.06,0.06-0.14,0.06-0.24
					C104.92,69.3,104.72,69.01,104.32,68.84z"/>
				<path class="st1" d="M107.39,61.59c-0.97-0.13-1.62-0.34-1.97-0.62c-0.87-0.6-1.66-0.93-2.37-1c-0.78,0-1.48,0.38-2.1,1.15
					c-0.29,0.51-0.37,0.88-0.26,1.09c0.11,0.21,0.27,0.29,0.49,0.25c0.21-0.04,0.46-0.19,0.74-0.45c0.47-0.34,0.85-0.51,1.14-0.51
					c0.16,0,0.34,0.04,0.55,0.13c0.21,0.09,0.48,0.23,0.83,0.44c0.29,0.21,0.56,0.34,0.79,0.38c-0.16,0.05-0.35,0.13-0.57,0.24
					c-0.22,0.11-0.43,0.23-0.63,0.34c-0.74,0.49-1.25,0.8-1.54,0.93c-0.78,0.4-1.46,0.59-2.02,0.59h-0.05h-0.15h-0.01
					c-0.75,0.11-1.3,0.46-1.65,1.04c-0.37,0.7-0.7,1.27-1,1.73c-0.29,0.46-0.61,0.86-0.95,1.2c-0.27,0.25-0.55,0.48-0.84,0.67
					c-0.29,0.19-0.61,0.37-0.96,0.54c-0.52,0.31-0.78,0.59-0.78,0.85c0,0.13,0.05,0.24,0.14,0.35c0.09,0.11,0.26,0.16,0.52,0.16
					c0.48-0.05,1.01-0.24,1.58-0.58c1.25-0.74,2.26-1.85,3.04-3.36c0.29-0.55,0.59-0.92,0.9-1.1h0.01h0.15h0.3
					c0.37,0.01,0.85-0.09,1.42-0.3c0.58-0.21,1.11-0.44,1.59-0.7l1.89-1.17c0.8-0.44,1.42-0.71,1.85-0.81
					c0.43-0.16,0.64-0.43,0.6-0.83S107.81,61.64,107.39,61.59z"/>
				<path class="st1" d="M146.8,63.63c-0.31-0.66-0.87-1.12-1.7-1.4c-0.42,0-0.71,0.11-0.88,0.33s-0.23,0.52-0.19,0.9l-0.15-0.02
					c-0.29,0-0.58,0.04-0.9,0.13s-0.66,0.27-1.01,0.56c-0.36,0.28-0.75,0.43-1.18,0.43c-0.03,0-0.07,0-0.1,0
					c-0.54,0-0.95-0.11-1.23-0.33c0.31-0.39,0.49-0.64,0.55-0.76c0.08-0.28,0.12-0.57,0.12-0.87c0-0.59-0.17-1.07-0.51-1.44
					c-0.34-0.38-0.83-0.57-1.46-0.58c-1.7,0.04-3.2,1.4-4.51,4.07c-0.99,0.1-1.5-0.34-1.52-1.33c-0.02-0.48-0.2-0.73-0.55-0.75
					c-0.41,0.02-0.75,0.27-1.01,0.77c-0.36,0.79-0.85,1.19-1.47,1.21h-0.02c-0.71,0-1.25-0.11-1.61-0.33
					c-0.36-0.22-0.63-0.48-0.81-0.78c-0.24-0.27-0.52-0.4-0.85-0.4c-0.3-0.02-0.58,0.2-0.84,0.68c-0.22,0.36-0.5,0.59-0.85,0.69
					c-0.34,0.1-0.69,0.15-1.05,0.15h-0.08h-0.08c-0.74-0.02-1.31-0.11-1.72-0.28c-0.25-0.12-0.49-0.31-0.72-0.57
					c-0.21-0.24-0.36-0.38-0.47-0.42c-0.11-0.04-0.2-0.06-0.29-0.06c-0.32,0-0.55,0.2-0.69,0.61c-0.19,0.03-0.44,0.09-0.75,0.17
					s-0.52,0.15-0.62,0.2c-1.08,0.48-1.77,1.29-2.08,2.41c-0.26,0.79-0.42,2.31-0.49,4.54c-0.02,0.72-0.02,1.58-0.02,2.57
					c0,0.99,0.01,1.65,0.02,1.96c0.07,0.47,0.29,0.68,0.65,0.63c0.36-0.05,0.56-0.28,0.59-0.7c0.02-0.92,0.03-1.8,0.03-2.64
					c0-0.84,0.03-1.75,0.07-2.72c0.04-0.97,0.14-1.92,0.29-2.84c0.17-0.7,0.56-1.2,1.19-1.51c0.36-0.19,0.78-0.26,1.25-0.2
					c0.28,0.33,0.59,0.66,0.94,0.97c0.35,0.32,0.78,0.45,1.29,0.4c0.51-0.05,0.8-0.33,0.88-0.84c0-0.11-0.02-0.22-0.07-0.33
					c0.21,0.1,0.48,0.14,0.79,0.15v0c0.01,0,0.03,0,0.05,0c0.01,0,0.01,0,0.01,0h0.09v0c0.24,0,0.52-0.02,0.83-0.07
					c0.38-0.05,0.7-0.19,0.97-0.4c0.43,0.79,0.97,1.21,1.64,1.25c0.53-0.04,0.79-0.41,0.79-1.1c0.49,0.2,1.03,0.3,1.6,0.32v0.01
					h0.11h0.11h0.09c0.76,0,1.4-0.34,1.92-1.01c0.32,0.77,1.05,1.15,2.2,1.15c0.16,0.02,0.78,0.01,1.86-0.05
					c1.08-0.06,2.11-0.34,3.09-0.85c0.35,0.51,1.13,0.76,2.35,0.76h0.24l0-0.02c0.4-0.02,0.76-0.11,1.06-0.31
					c0.34-0.23,0.7-0.46,1.06-0.71c0.36-0.25,0.75-0.27,1.18-0.08c0.1,0.07,0.25,0.17,0.46,0.29c0.22,0.14,0.49,0.24,0.79,0.28
					c0.42,0,0.76-0.16,1.03-0.48s0.38-0.63,0.33-0.93C146.85,63.95,146.83,63.8,146.8,63.63z M137.48,64.08
					c-0.88,0.46-1.7,0.68-2.45,0.65c0.38-0.73,0.81-1.36,1.28-1.89c0.61-0.62,1.15-0.93,1.64-0.93c0.57,0,0.85,0.22,0.85,0.65
					C138.81,63.12,138.36,63.62,137.48,64.08z"/>
			</g>
		</g>
	</g>
	<g>
		<path class="st0" d="M31.06,23.75c-0.48-0.52-1.16-0.78-2.01-0.78c-0.17,0-0.35,0.01-0.57,0.04c-2.11,0.32-4.16,1.14-6.12,2.42
			c-1.94,1.27-3.55,2.82-4.78,4.59c-1.28,1.84-1.9,3.47-1.9,4.99c0,0.61,0.12,1.2,0.35,1.7c0.54,1.33,1.79,2.39,3.71,3.15
			c1.44,0.57,1.38,1.26,1.34,1.61c-0.22,2.63-1.31,4.7-3.33,6.33c-1.81,1.5-3.8,2.23-6.08,2.25c-1.8-0.02-3.25-0.52-4.45-1.55
			c-1.3-1.04-1.98-2.49-2.08-4.38V43.3c0-2.19,0.51-4.55,1.51-7.02c0.42-1.08,0.91-2.19,1.46-3.3l0.07-0.18
			c0.75-2.72-0.69-3.44-1.34-3.62c-0.72-0.21-2.09-0.29-3.18,1.44c-1.33,2.44-2.3,4.82-2.88,7.06c-0.59,2.25-0.85,4.35-0.78,6.23
			c0.07,1.92,0.44,3.62,1.1,5.08c0.68,1.5,1.61,2.68,2.73,3.48c2.21,1.75,4.93,2.65,8.08,2.69c0.03,0,0.06,0,0.09,0
			c3.41,0,6.43-1.1,8.97-3.27c2.95-2.41,4.72-5.77,5.27-10.06c0.02-0.45,0.03-0.84,0.03-1.17c0-1.7-0.51-3.01-1.51-3.92
			c-0.29-0.31-0.88-0.77-2.69-1.58c-0.57-0.22-0.93-0.48-0.98-0.71l-0.03-0.14c0.02-0.45,0.35-1.39,2.28-2.91
			c1.84-1.52,3.96-2.4,6.21-2.62c0.68,0,1.86-0.32,2.21-2.57C31.84,25.16,31.6,24.33,31.06,23.75z M29.66,27.78
			C29.67,27.78,29.67,27.78,29.66,27.78l0,0.02L29.66,27.78z"/>
		<path class="st0" d="M56.29,24.87c1.55,0,2.63-0.75,3.04-2.12c0.1-0.34,0.16-0.68,0.16-1.03c0-1.41-0.76-2.47-2.18-3
			c-0.33-0.11-0.67-0.17-1.02-0.17c-1.49,0-2.56,0.78-3.01,2.19l-0.04,0.15c-0.04,0.29-0.07,0.59-0.07,0.88
			c0,0.81,0.33,1.56,0.95,2.17C54.74,24.55,55.49,24.87,56.29,24.87z"/>
		<path class="st0" d="M77.11,34.95l-0.08-0.24c-0.85-1.81-2.4-3.1-4.61-3.85l-0.16-0.05H72.1c-1.32,0-2.29,0.4-2.88,1.19
			c-0.36,0.48-0.57,1.05-0.65,1.71c-0.57,0.05-1.17,0.15-1.77,0.32c-0.88,0.24-1.81,0.75-2.76,1.5c-0.65,0.51-1.33,0.77-2.03,0.79
			c-0.49-0.02-0.86-0.14-1.15-0.39c-0.27-0.23-0.43-0.69-0.45-1.31c0-2.22-1.24-2.82-1.97-2.98l-0.69-0.02
			c-1.33,0-2.27,0.77-2.59,2.11c-0.4,1-0.96,1.67-1.72,2.04c-0.76,0.37-1.76,0.56-3.02,0.54c-1.07-0.01-1.81-0.28-2.27-0.82
			c-0.46-0.55-0.61-1.57-0.44-2.88c0.51-2.57,0.88-4.44,1.11-5.61c0.1-0.28,0.15-0.56,0.14-0.92c-0.11-1.44-1.01-2.32-2.47-2.44
			c-1.43-0.11-2.46,0.57-2.85,1.93c-0.36,1.57-0.76,3.21-1.19,4.88c-0.4,1.55-1.01,2.84-1.81,3.84c-0.81,1-2.11,1.99-3.87,2.95
			c-2.29,1.24-3.14,1.64-3.45,1.76l-0.13,0.06c-1.61,0.9-1.61,2.2-1.46,2.9c0.12,0.57,0.61,1.86,2.61,1.86c0.08,0,0.17,0,0.26-0.01
			l0.17-0.02c1.66-0.38,3.53-1.13,5.55-2.26c1.42-0.79,2.55-1.58,3.42-2.38c0.21,0.29,0.45,0.56,0.72,0.79
			c0.6,0.53,1.28,0.95,2,1.25c0.71,0.3,1.44,0.49,2.17,0.58c0.13,0.02,0.26,0.03,0.38,0.04v0.08l1.16,0l0.26,0l1-0.01v-0.04
			c2.45-0.18,4.31-0.83,5.56-1.96c0.13,0.16,0.27,0.31,0.41,0.45c0.47,0.46,0.99,0.8,1.55,1.03c0.52,0.21,1.06,0.35,1.62,0.43
			c0.09,0.01,0.19,0.02,0.28,0.03v0.06l0.98,0.02c0.06,0,0.12,0,0.12-0.01l0.1,0.01l1.05-0.01V41.8c0.79-0.13,1.51-0.41,2.15-0.83
			c0.82-0.54,1.67-1.11,2.53-1.71c0.54-0.37,1.07-0.42,1.73-0.13c0.26,0.18,0.62,0.4,1.06,0.65c0.64,0.41,1.41,0.69,2.28,0.82
			L73,40.61c1.3,0,2.38-0.5,3.22-1.5c0.81-0.96,1.15-1.95,1.02-2.93C77.23,35.79,77.19,35.37,77.11,34.95z"/>
		<path class="st0" d="M122.66,22.98c-0.17,0-0.35,0.01-0.57,0.04c-2.11,0.32-4.16,1.14-6.12,2.42c-1.94,1.27-3.55,2.82-4.78,4.59
			c-1.28,1.84-1.9,3.47-1.9,4.99c0,0.61,0.12,1.2,0.35,1.7c0.54,1.33,1.79,2.39,3.71,3.15c1.44,0.57,1.38,1.26,1.34,1.6
			c-0.22,2.63-1.31,4.7-3.33,6.33c-1.81,1.5-3.8,2.23-6.09,2.25c-1.8-0.02-3.25-0.52-4.45-1.55c-1.3-1.04-1.98-2.49-2.08-4.38V43.3
			c0-2.19,0.51-4.55,1.51-7.02c0.42-1.08,0.91-2.19,1.46-3.3l0.07-0.18c0.75-2.72-0.69-3.44-1.34-3.62
			c-0.72-0.21-2.09-0.29-3.18,1.44c-1.33,2.44-2.3,4.82-2.88,7.06c-0.59,2.25-0.85,4.35-0.78,6.23c0.07,1.92,0.44,3.63,1.1,5.08
			c0.68,1.5,1.61,2.68,2.73,3.48c2.21,1.75,4.93,2.65,8.08,2.69c0.03,0,0.06,0,0.09,0c3.4,0,6.43-1.1,8.97-3.27
			c2.95-2.41,4.72-5.77,5.27-10.06c0.02-0.45,0.03-0.84,0.03-1.17c0-1.7-0.51-3.01-1.51-3.92c-0.29-0.31-0.88-0.77-2.69-1.58
			c-0.57-0.22-0.93-0.48-0.98-0.72l-0.03-0.13c0.02-0.45,0.35-1.39,2.28-2.91c1.84-1.52,3.97-2.4,6.21-2.62
			c0.68,0,1.86-0.32,2.21-2.57c0.07-1.08-0.17-1.91-0.7-2.48C124.19,23.24,123.51,22.98,122.66,22.98z M123.27,27.78
			C123.27,27.78,123.27,27.78,123.27,27.78l0,0.02L123.27,27.78z"/>
		<path class="st0" d="M135.79,23.14l-0.02-0.01c-0.6-0.36-1.17-0.52-1.73-0.53c-0.45,0.01-1.12,0.19-1.76,0.95
			c-0.47,0.57-0.71,1.22-0.71,1.93s0.21,1.33,0.62,1.83c3.59,4.33,3.84,5.4,3.86,5.52c-0.04,1.08-0.76,2.14-2.1,3.13
			c-0.62,0.43-1.93,1.15-3.89,2.16c-2.93,1.51-3.6,2.31-3.86,2.9l-0.07,0.19c-0.18,0.8,0.01,1.58,0.53,2.24
			c0.44,0.55,1.09,0.83,1.93,0.83c0.28,0,0.58-0.03,0.9-0.09c1.64-0.33,3.57-1.13,5.89-2.46c2.01-1.2,3.48-2.35,4.49-3.53
			c1.06-1.24,1.69-2.78,1.85-4.55c0.02-0.23,0.03-0.42,0.03-0.58c0-1.68-0.78-3.66-2.4-6.06C138.04,25.1,136.87,23.84,135.79,23.14z
			"/>
		<path class="st0" d="M157.16,19.95l0.07,0.02c0.24,0.05,0.51,0.08,0.81,0.08c1.46,0,2.54-0.72,3.07-2.04l0.04-0.13
			c0.08-0.3,0.12-0.64,0.12-1c0-1.39-0.76-2.44-2.14-2.96l-0.17-0.05c-0.36-0.07-0.66-0.1-0.92-0.1c-1.5,0-2.58,0.77-3.05,2.2
			c-0.08,0.29-0.12,0.6-0.12,0.91C154.87,18.41,155.68,19.5,157.16,19.95z"/>
		<path class="st0" d="M162.21,25.16c-1.41-1.74-2.9-2.51-4.4-2.29c-1.34,0.12-2.52,0.91-3.52,2.36c-0.94,1.36-1.42,2.81-1.42,4.3
			c0,2.64,1.38,4.16,3.79,4.16c0.26,0,0.57-0.02,0.91-0.06l0.17-0.02l0.15-0.07c0.08-0.04,0.17-0.07,0.26-0.09l0.17-0.06
			c0.46-0.19,0.6-0.18,0.66-0.17c0.01,0.07,0.02,0.2,0,0.43c-0.04,0.67-0.17,2.7-5.62,2.7h-0.83c-0.26-0.03-0.5-0.11-0.74-0.25
			c-0.36-0.21-0.68-0.58-0.95-1.1c-0.31-0.59-0.54-1.4-0.69-2.4c-0.16-1.04-0.19-2.31-0.1-3.85c0.02-5.97,0.19-11.03,0.5-15.03
			c0.13-1.76-0.11-2.98-0.76-3.73c-0.41-0.47-0.96-0.74-1.62-0.78c-1.12-0.07-2.51,0.54-2.89,3.81c-0.43,6.7-0.67,12.35-0.71,16.79
			c-0.05,8.96,3.56,11.56,6.96,12.02v0.09h2.24c3.68,0,6.47-1.04,8.25-3.08c1.65-1.78,2.49-4.2,2.49-7.19
			C164.53,29.1,163.75,26.92,162.21,25.16z"/>
	</g>
</g>
</svg>
