<?xml version="1.0" encoding="utf-8"?>
<!-- Generator: Adobe Illustrator 26.0.3, SVG Export Plug-In . SVG Version: 6.00 Build 0)  -->
<svg version="1.1" id="Layer_1" xmlns="http://www.w3.org/2000/svg" xmlns:xlink="http://www.w3.org/1999/xlink" x="0px" y="0px"
	 viewBox="0 0 47.42 800" style="enable-background:new 0 0 47.42 800;" xml:space="preserve">
<style type="text/css">
	.st0{fill:#20C7AB;}
	.st1{fill:#FFA227;}
	.st2{fill:#388CBA;}
	.st3{fill:#BF2C2F;}
</style>
<g>
	<g>
		<path class="st0" d="M6.87,747.51c-1.07-1.74-3.37-2.28-5.11-1.21c-1.74,1.07-2.28,3.37-1.21,5.11c1.07,1.74,3.37,2.28,5.11,1.21
			C7.4,751.54,7.94,749.25,6.87,747.51z"/>
		<path class="st0" d="M6.87,767.51c-1.07-1.74-3.37-2.28-5.11-1.21c-1.74,1.07-2.28,3.37-1.21,5.11c1.07,1.74,3.37,2.28,5.11,1.21
			C7.4,771.54,7.94,769.25,6.87,767.51z"/>
		<path class="st1" d="M40.55,751.41c1.07,1.74,3.37,2.28,5.11,1.21c1.74-1.07,2.28-3.37,1.21-5.11c-1.07-1.74-3.37-2.28-5.11-1.21
			C40.02,747.38,39.48,749.68,40.55,751.41z"/>
		<path class="st2" d="M26.87,757.51c-1.07-1.74-3.37-2.28-5.11-1.21c-1.74,1.07-2.28,3.37-1.21,5.11c1.07,1.74,3.37,2.28,5.11,1.21
			C27.4,761.54,27.94,759.25,26.87,757.51z"/>
		<path class="st3" d="M42.07,759.85l-8.98-9.38l-8.98-9.38l-9.38,8.98l-9.38,8.98l8.98,9.38l8.98,9.38l9.38-8.98L42.07,759.85z
			 M17.56,765.03c-5.21-5.76-5.18-6.51,0.58-11.72c5.76-5.21,6.51-5.18,11.72,0.58s5.18,6.51-0.58,11.72
			C23.52,770.83,22.77,770.79,17.56,765.03z"/>
		<path class="st2" d="M40.55,791.41c1.07,1.74,3.37,2.28,5.11,1.21c1.74-1.07,2.28-3.37,1.21-5.11c-1.07-1.74-3.37-2.28-5.11-1.21
			C40.02,787.38,39.48,789.68,40.55,791.41z"/>
		<path class="st1" d="M41.76,766.3c-1.74,1.07-2.28,3.37-1.21,5.11c1.07,1.74,3.37,2.28,5.11,1.21c1.74-1.07,2.28-3.37,1.21-5.11
			C45.79,765.77,43.49,765.23,41.76,766.3z"/>
		<path class="st1" d="M23.32,737.82l9.38-8.98c0,0,8.93-8.56,9.22-8.84h-8.24c-0.1,1.54-1.54,3.03-4.4,5.61
			c-5.76,5.21-6.51,5.18-11.72-0.58c-2.04-2.26-3.25-3.74-3.65-5.03H6.24l8.09,8.44L23.32,737.82z"/>
		<path class="st3" d="M20.55,721.41c1.07,1.74,3.37,2.28,5.11,1.21c0.96-0.6,1.51-1.57,1.67-2.62h-7.29
			C20.11,720.49,20.28,720.97,20.55,721.41z"/>
		<path class="st0" d="M6.87,727.51c-1.07-1.74-3.37-2.28-5.11-1.21c-1.74,1.07-2.28,3.37-1.21,5.11c1.07,1.74,3.37,2.28,5.11,1.21
			C7.4,731.54,7.94,729.25,6.87,727.51z"/>
		<path class="st2" d="M46.87,727.51c-1.07-1.74-3.37-2.28-5.11-1.21c-1.74,1.07-2.28,3.37-1.21,5.11c1.07,1.74,3.37,2.28,5.11,1.21
			C47.4,731.54,47.94,729.25,46.87,727.51z"/>
		<path class="st0" d="M0.55,791.41c1.07,1.74,3.37,2.28,5.11,1.21c1.74-1.07,2.28-3.37,1.21-5.11c-1.07-1.74-3.37-2.28-5.11-1.21
			C0.02,787.38-0.52,789.68,0.55,791.41z"/>
		<path class="st3" d="M26.87,797.51c-1.07-1.74-3.37-2.28-5.11-1.21c-1.29,0.8-1.92,2.28-1.71,3.7h7.29
			C27.45,799.16,27.34,798.28,26.87,797.51z"/>
		<path class="st1" d="M33.09,790.48l-8.98-9.38l-9.38,8.98l-9.38,8.98L6.24,800h7.66c-0.62-2,0.73-3.52,4.24-6.69
			c5.76-5.21,6.51-5.18,11.72,0.58c2.63,2.91,3.91,4.54,3.81,6.11h8.24c0,0,0.15-0.15,0.15-0.15L33.09,790.48z"/>
	</g>
	<g>
		<path class="st0" d="M6.87,667.51c-1.07-1.74-3.37-2.28-5.11-1.21c-1.74,1.07-2.28,3.37-1.21,5.11c1.07,1.74,3.37,2.28,5.11,1.21
			C7.4,671.54,7.94,669.25,6.87,667.51z"/>
		<path class="st0" d="M6.87,687.51c-1.07-1.74-3.37-2.28-5.11-1.21c-1.74,1.07-2.28,3.37-1.21,5.11c1.07,1.74,3.37,2.28,5.11,1.21
			C7.4,691.54,7.94,689.25,6.87,687.51z"/>
		<path class="st1" d="M40.55,671.41c1.07,1.74,3.37,2.28,5.11,1.21c1.74-1.07,2.28-3.37,1.21-5.11c-1.07-1.74-3.37-2.28-5.11-1.21
			C40.02,667.38,39.48,669.68,40.55,671.41z"/>
		<path class="st2" d="M26.87,677.51c-1.07-1.74-3.37-2.28-5.11-1.21c-1.74,1.07-2.28,3.37-1.21,5.11c1.07,1.74,3.37,2.28,5.11,1.21
			C27.4,681.54,27.94,679.25,26.87,677.51z"/>
		<path class="st3" d="M42.07,679.85l-8.98-9.38l-8.98-9.38l-9.38,8.98l-9.38,8.98l8.98,9.38l8.98,9.38l9.38-8.98L42.07,679.85z
			 M17.56,685.03c-5.21-5.76-5.18-6.51,0.58-11.72c5.76-5.21,6.51-5.18,11.72,0.58c5.21,5.76,5.18,6.51-0.58,11.72
			C23.52,690.83,22.77,690.79,17.56,685.03z"/>
		<path class="st2" d="M40.55,711.41c1.07,1.74,3.37,2.28,5.11,1.21c1.74-1.07,2.28-3.37,1.21-5.11c-1.07-1.74-3.37-2.28-5.11-1.21
			C40.02,707.38,39.48,709.68,40.55,711.41z"/>
		<path class="st1" d="M41.76,686.3c-1.74,1.07-2.28,3.37-1.21,5.11c1.07,1.74,3.37,2.28,5.11,1.21c1.74-1.07,2.28-3.37,1.21-5.11
			C45.79,685.77,43.49,685.23,41.76,686.3z"/>
		<path class="st1" d="M23.32,657.82l9.38-8.98c0,0,8.93-8.56,9.22-8.84h-8.24c-0.1,1.54-1.54,3.03-4.4,5.61
			c-5.76,5.21-6.51,5.18-11.72-0.58c-2.04-2.26-3.25-3.74-3.65-5.03H6.24l8.09,8.44L23.32,657.82z"/>
		<path class="st3" d="M20.55,641.41c1.07,1.74,3.37,2.28,5.11,1.21c0.96-0.6,1.51-1.57,1.67-2.62h-7.29
			C20.11,640.49,20.28,640.97,20.55,641.41z"/>
		<path class="st0" d="M6.87,647.51c-1.07-1.74-3.37-2.28-5.11-1.21c-1.74,1.07-2.28,3.37-1.21,5.11c1.07,1.74,3.37,2.28,5.11,1.21
			C7.4,651.54,7.94,649.25,6.87,647.51z"/>
		<path class="st2" d="M46.87,647.51c-1.07-1.74-3.37-2.28-5.11-1.21c-1.74,1.07-2.28,3.37-1.21,5.11c1.07,1.74,3.37,2.28,5.11,1.21
			C47.4,651.54,47.94,649.25,46.87,647.51z"/>
		<path class="st0" d="M0.55,711.41c1.07,1.74,3.37,2.28,5.11,1.21c1.74-1.07,2.28-3.37,1.21-5.11c-1.07-1.74-3.37-2.28-5.11-1.21
			C0.02,707.38-0.52,709.68,0.55,711.41z"/>
		<path class="st3" d="M26.87,717.51c-1.07-1.74-3.37-2.28-5.11-1.21c-1.29,0.8-1.92,2.28-1.71,3.7h7.29
			C27.45,719.16,27.34,718.28,26.87,717.51z"/>
		<path class="st1" d="M33.09,710.48l-8.98-9.38l-9.38,8.98l-9.38,8.98L6.24,720h7.66c-0.62-2,0.73-3.52,4.24-6.69
			c5.76-5.21,6.51-5.18,11.72,0.58c2.63,2.91,3.91,4.54,3.81,6.11h8.24c0,0,0.15-0.15,0.15-0.15L33.09,710.48z"/>
	</g>
	<g>
		<path class="st0" d="M6.87,587.51c-1.07-1.74-3.37-2.28-5.11-1.21c-1.74,1.07-2.28,3.37-1.21,5.11c1.07,1.74,3.37,2.28,5.11,1.21
			C7.4,591.54,7.94,589.25,6.87,587.51z"/>
		<path class="st0" d="M6.87,607.51c-1.07-1.74-3.37-2.28-5.11-1.21c-1.74,1.07-2.28,3.37-1.21,5.11c1.07,1.74,3.37,2.28,5.11,1.21
			C7.4,611.54,7.94,609.25,6.87,607.51z"/>
		<path class="st1" d="M40.55,591.41c1.07,1.74,3.37,2.28,5.11,1.21c1.74-1.07,2.28-3.37,1.21-5.11c-1.07-1.74-3.37-2.28-5.11-1.21
			C40.02,587.38,39.48,589.68,40.55,591.41z"/>
		<path class="st2" d="M26.87,597.51c-1.07-1.74-3.37-2.28-5.11-1.21c-1.74,1.07-2.28,3.37-1.21,5.11c1.07,1.74,3.37,2.28,5.11,1.21
			C27.4,601.54,27.94,599.25,26.87,597.51z"/>
		<path class="st3" d="M42.07,599.85l-8.98-9.38l-8.98-9.38l-9.38,8.98l-9.38,8.98l8.98,9.38l8.98,9.38l9.38-8.98L42.07,599.85z
			 M17.56,605.03c-5.21-5.76-5.18-6.51,0.58-11.72c5.76-5.21,6.51-5.18,11.72,0.58c5.21,5.76,5.18,6.51-0.58,11.72
			C23.52,610.83,22.77,610.79,17.56,605.03z"/>
		<path class="st2" d="M40.55,631.41c1.07,1.74,3.37,2.28,5.11,1.21c1.74-1.07,2.28-3.37,1.21-5.11c-1.07-1.74-3.37-2.28-5.11-1.21
			C40.02,627.38,39.48,629.68,40.55,631.41z"/>
		<path class="st1" d="M41.76,606.3c-1.74,1.07-2.28,3.37-1.21,5.11c1.07,1.74,3.37,2.28,5.11,1.21c1.74-1.07,2.28-3.37,1.21-5.11
			C45.79,605.77,43.49,605.23,41.76,606.3z"/>
		<path class="st1" d="M23.32,577.82l9.38-8.98c0,0,8.93-8.56,9.22-8.84h-8.24c-0.1,1.54-1.54,3.03-4.4,5.61
			c-5.76,5.21-6.51,5.18-11.72-0.58c-2.04-2.26-3.25-3.74-3.65-5.03H6.24l8.09,8.44L23.32,577.82z"/>
		<path class="st3" d="M20.55,561.41c1.07,1.74,3.37,2.28,5.11,1.21c0.96-0.6,1.51-1.57,1.67-2.62h-7.29
			C20.11,560.49,20.28,560.97,20.55,561.41z"/>
		<path class="st0" d="M6.87,567.51c-1.07-1.74-3.37-2.28-5.11-1.21c-1.74,1.07-2.28,3.37-1.21,5.11c1.07,1.74,3.37,2.28,5.11,1.21
			C7.4,571.54,7.94,569.25,6.87,567.51z"/>
		<path class="st2" d="M46.87,567.51c-1.07-1.74-3.37-2.28-5.11-1.21c-1.74,1.07-2.28,3.37-1.21,5.11c1.07,1.74,3.37,2.28,5.11,1.21
			C47.4,571.54,47.94,569.25,46.87,567.51z"/>
		<path class="st0" d="M0.55,631.41c1.07,1.74,3.37,2.28,5.11,1.21c1.74-1.07,2.28-3.37,1.21-5.11c-1.07-1.74-3.37-2.28-5.11-1.21
			C0.02,627.38-0.52,629.68,0.55,631.41z"/>
		<path class="st3" d="M26.87,637.51c-1.07-1.74-3.37-2.28-5.11-1.21c-1.29,0.8-1.92,2.28-1.71,3.7h7.29
			C27.45,639.16,27.34,638.28,26.87,637.51z"/>
		<path class="st1" d="M33.09,630.48l-8.98-9.38l-9.38,8.98l-9.38,8.98L6.24,640h7.66c-0.62-2,0.73-3.52,4.24-6.69
			c5.76-5.21,6.51-5.18,11.72,0.58c2.63,2.91,3.91,4.54,3.81,6.11h8.24c0,0,0.15-0.15,0.15-0.15L33.09,630.48z"/>
	</g>
	<g>
		<path class="st0" d="M6.87,507.51c-1.07-1.74-3.37-2.28-5.11-1.21c-1.74,1.07-2.28,3.37-1.21,5.11c1.07,1.74,3.37,2.28,5.11,1.21
			C7.4,511.54,7.94,509.25,6.87,507.51z"/>
		<path class="st0" d="M6.87,527.51c-1.07-1.74-3.37-2.28-5.11-1.21c-1.74,1.07-2.28,3.37-1.21,5.11c1.07,1.74,3.37,2.28,5.11,1.21
			C7.4,531.54,7.94,529.25,6.87,527.51z"/>
		<path class="st1" d="M40.55,511.41c1.07,1.74,3.37,2.28,5.11,1.21c1.74-1.07,2.28-3.37,1.21-5.11c-1.07-1.74-3.37-2.28-5.11-1.21
			C40.02,507.38,39.48,509.68,40.55,511.41z"/>
		<path class="st2" d="M26.87,517.51c-1.07-1.74-3.37-2.28-5.11-1.21c-1.74,1.07-2.28,3.37-1.21,5.11c1.07,1.74,3.37,2.28,5.11,1.21
			C27.4,521.54,27.94,519.25,26.87,517.51z"/>
		<path class="st3" d="M42.07,519.85l-8.98-9.38l-8.98-9.38l-9.38,8.98l-9.38,8.98l8.98,9.38l8.98,9.38l9.38-8.98L42.07,519.85z
			 M17.56,525.03c-5.21-5.76-5.18-6.51,0.58-11.72c5.76-5.21,6.51-5.18,11.72,0.58c5.21,5.76,5.18,6.51-0.58,11.72
			C23.52,530.83,22.77,530.79,17.56,525.03z"/>
		<path class="st2" d="M40.55,551.41c1.07,1.74,3.37,2.28,5.11,1.21c1.74-1.07,2.28-3.37,1.21-5.11c-1.07-1.74-3.37-2.28-5.11-1.21
			C40.02,547.38,39.48,549.68,40.55,551.41z"/>
		<path class="st1" d="M41.76,526.3c-1.74,1.07-2.28,3.37-1.21,5.11c1.07,1.74,3.37,2.28,5.11,1.21c1.74-1.07,2.28-3.37,1.21-5.11
			C45.79,525.77,43.49,525.23,41.76,526.3z"/>
		<path class="st1" d="M23.32,497.82l9.38-8.98c0,0,8.93-8.56,9.22-8.84h-8.24c-0.1,1.54-1.54,3.03-4.4,5.61
			c-5.76,5.21-6.51,5.18-11.72-0.58c-2.04-2.26-3.25-3.74-3.65-5.03H6.24l8.09,8.44L23.32,497.82z"/>
		<path class="st3" d="M20.55,481.41c1.07,1.74,3.37,2.28,5.11,1.21c0.96-0.6,1.51-1.57,1.67-2.62h-7.29
			C20.11,480.49,20.28,480.97,20.55,481.41z"/>
		<path class="st0" d="M6.87,487.51c-1.07-1.74-3.37-2.28-5.11-1.21c-1.74,1.07-2.28,3.37-1.21,5.11c1.07,1.74,3.37,2.28,5.11,1.21
			C7.4,491.54,7.94,489.25,6.87,487.51z"/>
		<path class="st2" d="M46.87,487.51c-1.07-1.74-3.37-2.28-5.11-1.21c-1.74,1.07-2.28,3.37-1.21,5.11c1.07,1.74,3.37,2.28,5.11,1.21
			C47.4,491.54,47.94,489.25,46.87,487.51z"/>
		<path class="st0" d="M0.55,551.41c1.07,1.74,3.37,2.28,5.11,1.21c1.74-1.07,2.28-3.37,1.21-5.11c-1.07-1.74-3.37-2.28-5.11-1.21
			C0.02,547.38-0.52,549.68,0.55,551.41z"/>
		<path class="st3" d="M26.87,557.51c-1.07-1.74-3.37-2.28-5.11-1.21c-1.29,0.8-1.92,2.28-1.71,3.7h7.29
			C27.45,559.16,27.34,558.28,26.87,557.51z"/>
		<path class="st1" d="M33.09,550.48l-8.98-9.38l-9.38,8.98l-9.38,8.98L6.24,560h7.66c-0.62-2,0.73-3.52,4.24-6.69
			c5.76-5.21,6.51-5.18,11.72,0.58c2.63,2.91,3.91,4.54,3.81,6.11h8.24c0,0,0.15-0.15,0.15-0.15L33.09,550.48z"/>
	</g>
	<g>
		<path class="st0" d="M6.87,427.51c-1.07-1.74-3.37-2.28-5.11-1.21c-1.74,1.07-2.28,3.37-1.21,5.11c1.07,1.74,3.37,2.28,5.11,1.21
			C7.4,431.55,7.94,429.25,6.87,427.51z"/>
		<path class="st0" d="M6.87,447.51c-1.07-1.74-3.37-2.28-5.11-1.21c-1.74,1.07-2.28,3.37-1.21,5.11c1.07,1.74,3.37,2.28,5.11,1.21
			C7.4,451.54,7.94,449.25,6.87,447.51z"/>
		<path class="st1" d="M40.55,431.41c1.07,1.74,3.37,2.28,5.11,1.21c1.74-1.07,2.28-3.37,1.21-5.11c-1.07-1.74-3.37-2.28-5.11-1.21
			C40.02,427.38,39.48,429.68,40.55,431.41z"/>
		<path class="st2" d="M26.87,437.51c-1.07-1.74-3.37-2.28-5.11-1.21c-1.74,1.07-2.28,3.37-1.21,5.11c1.07,1.74,3.37,2.28,5.11,1.21
			C27.4,441.54,27.94,439.25,26.87,437.51z"/>
		<path class="st3" d="M42.07,439.85l-8.98-9.38l-8.98-9.38l-9.38,8.98l-9.38,8.98l8.98,9.38l8.98,9.38l9.38-8.98L42.07,439.85z
			 M17.56,445.03c-5.21-5.76-5.18-6.51,0.58-11.72c5.76-5.21,6.51-5.18,11.72,0.58c5.21,5.76,5.18,6.51-0.58,11.72
			C23.52,450.83,22.77,450.79,17.56,445.03z"/>
		<path class="st2" d="M40.55,471.41c1.07,1.74,3.37,2.28,5.11,1.21c1.74-1.07,2.28-3.37,1.21-5.11c-1.07-1.74-3.37-2.28-5.11-1.21
			C40.02,467.38,39.48,469.68,40.55,471.41z"/>
		<path class="st1" d="M41.76,446.3c-1.74,1.07-2.28,3.37-1.21,5.11c1.07,1.74,3.37,2.28,5.11,1.21c1.74-1.07,2.28-3.37,1.21-5.11
			C45.79,445.77,43.49,445.23,41.76,446.3z"/>
		<path class="st1" d="M23.32,417.82l9.38-8.98c0,0,8.93-8.56,9.22-8.84h-8.24c-0.1,1.54-1.54,3.03-4.4,5.61
			c-5.76,5.21-6.51,5.18-11.72-0.58c-2.04-2.26-3.25-3.74-3.65-5.03H6.24l8.09,8.44L23.32,417.82z"/>
		<path class="st3" d="M20.55,401.41c1.07,1.74,3.37,2.28,5.11,1.21c0.96-0.6,1.51-1.57,1.67-2.62h-7.29
			C20.11,400.49,20.28,400.97,20.55,401.41z"/>
		<path class="st0" d="M6.87,407.51c-1.07-1.74-3.37-2.28-5.11-1.21c-1.74,1.07-2.28,3.37-1.21,5.11c1.07,1.74,3.37,2.28,5.11,1.21
			C7.4,411.55,7.94,409.25,6.87,407.51z"/>
		<path class="st2" d="M46.87,407.51c-1.07-1.74-3.37-2.28-5.11-1.21c-1.74,1.07-2.28,3.37-1.21,5.11c1.07,1.74,3.37,2.28,5.11,1.21
			C47.4,411.55,47.94,409.25,46.87,407.51z"/>
		<path class="st0" d="M0.55,471.41c1.07,1.74,3.37,2.28,5.11,1.21c1.74-1.07,2.28-3.37,1.21-5.11c-1.07-1.74-3.37-2.28-5.11-1.21
			C0.02,467.38-0.52,469.68,0.55,471.41z"/>
		<path class="st3" d="M26.87,477.51c-1.07-1.74-3.37-2.28-5.11-1.21c-1.29,0.8-1.92,2.28-1.71,3.7h7.29
			C27.45,479.16,27.34,478.28,26.87,477.51z"/>
		<path class="st1" d="M33.09,470.48l-8.98-9.38l-9.38,8.98l-9.38,8.98L6.24,480h7.66c-0.62-2,0.73-3.52,4.24-6.69
			c5.76-5.21,6.51-5.18,11.72,0.58c2.63,2.91,3.91,4.54,3.81,6.11h8.24c0,0,0.15-0.15,0.15-0.15L33.09,470.48z"/>
	</g>
	<g>
		<path class="st0" d="M6.87,347.51c-1.07-1.74-3.37-2.28-5.11-1.21c-1.74,1.07-2.28,3.37-1.21,5.11c1.07,1.74,3.37,2.28,5.11,1.21
			C7.4,351.54,7.94,349.25,6.87,347.51z"/>
		<path class="st0" d="M6.87,367.51c-1.07-1.74-3.37-2.28-5.11-1.21c-1.74,1.07-2.28,3.37-1.21,5.11c1.07,1.74,3.37,2.28,5.11,1.21
			C7.4,371.54,7.94,369.25,6.87,367.51z"/>
		<path class="st1" d="M40.55,351.41c1.07,1.74,3.37,2.28,5.11,1.21c1.74-1.07,2.28-3.37,1.21-5.11c-1.07-1.74-3.37-2.28-5.11-1.21
			C40.02,347.38,39.48,349.68,40.55,351.41z"/>
		<path class="st2" d="M26.87,357.51c-1.07-1.74-3.37-2.28-5.11-1.21c-1.74,1.07-2.28,3.37-1.21,5.11c1.07,1.74,3.37,2.28,5.11,1.21
			C27.4,361.54,27.94,359.25,26.87,357.51z"/>
		<path class="st3" d="M42.07,359.85l-8.98-9.38l-8.98-9.38l-9.38,8.98l-9.38,8.98l8.98,9.38l8.98,9.38l9.38-8.98L42.07,359.85z
			 M17.56,365.03c-5.21-5.76-5.18-6.51,0.58-11.72c5.76-5.21,6.51-5.18,11.72,0.58s5.18,6.51-0.58,11.72
			C23.52,370.83,22.77,370.79,17.56,365.03z"/>
		<path class="st2" d="M40.55,391.41c1.07,1.74,3.37,2.28,5.11,1.21c1.74-1.07,2.28-3.37,1.21-5.11c-1.07-1.74-3.37-2.28-5.11-1.21
			C40.02,387.38,39.48,389.68,40.55,391.41z"/>
		<path class="st1" d="M41.76,366.3c-1.74,1.07-2.28,3.37-1.21,5.11c1.07,1.74,3.37,2.28,5.11,1.21c1.74-1.07,2.28-3.37,1.21-5.11
			C45.79,365.77,43.49,365.23,41.76,366.3z"/>
		<path class="st1" d="M23.32,337.82l9.38-8.98c0,0,8.93-8.56,9.22-8.84h-8.24c-0.1,1.54-1.54,3.03-4.4,5.61
			c-5.76,5.21-6.51,5.18-11.72-0.58c-2.04-2.26-3.25-3.74-3.65-5.03H6.24l8.09,8.44L23.32,337.82z"/>
		<path class="st3" d="M20.55,321.41c1.07,1.74,3.37,2.28,5.11,1.21c0.96-0.6,1.51-1.57,1.67-2.62h-7.29
			C20.11,320.49,20.28,320.97,20.55,321.41z"/>
		<path class="st0" d="M6.87,327.51c-1.07-1.74-3.37-2.28-5.11-1.21c-1.74,1.07-2.28,3.37-1.21,5.11c1.07,1.74,3.37,2.28,5.11,1.21
			C7.4,331.54,7.94,329.25,6.87,327.51z"/>
		<path class="st2" d="M46.87,327.51c-1.07-1.74-3.37-2.28-5.11-1.21c-1.74,1.07-2.28,3.37-1.21,5.11c1.07,1.74,3.37,2.28,5.11,1.21
			C47.4,331.54,47.94,329.25,46.87,327.51z"/>
		<path class="st0" d="M0.55,391.41c1.07,1.74,3.37,2.28,5.11,1.21c1.74-1.07,2.28-3.37,1.21-5.11c-1.07-1.74-3.37-2.28-5.11-1.21
			C0.02,387.38-0.52,389.68,0.55,391.41z"/>
		<path class="st3" d="M26.87,397.51c-1.07-1.74-3.37-2.28-5.11-1.21c-1.29,0.8-1.92,2.28-1.71,3.7h7.29
			C27.45,399.16,27.34,398.28,26.87,397.51z"/>
		<path class="st1" d="M33.09,390.48l-8.98-9.38l-9.38,8.98l-9.38,8.98L6.24,400h7.66c-0.62-2,0.73-3.52,4.24-6.69
			c5.76-5.21,6.51-5.18,11.72,0.58c2.63,2.91,3.91,4.54,3.81,6.11h8.24c0,0,0.15-0.15,0.15-0.15L33.09,390.48z"/>
	</g>
	<g>
		<path class="st0" d="M6.87,267.51c-1.07-1.74-3.37-2.28-5.11-1.21c-1.74,1.07-2.28,3.37-1.21,5.11c1.07,1.74,3.37,2.28,5.11,1.21
			C7.4,271.54,7.94,269.25,6.87,267.51z"/>
		<path class="st0" d="M6.87,287.51c-1.07-1.74-3.37-2.28-5.11-1.21c-1.74,1.07-2.28,3.37-1.21,5.11c1.07,1.74,3.37,2.28,5.11,1.21
			C7.4,291.54,7.94,289.25,6.87,287.51z"/>
		<path class="st1" d="M40.55,271.41c1.07,1.74,3.37,2.28,5.11,1.21c1.74-1.07,2.28-3.37,1.21-5.11c-1.07-1.74-3.37-2.28-5.11-1.21
			C40.02,267.38,39.48,269.68,40.55,271.41z"/>
		<path class="st2" d="M26.87,277.51c-1.07-1.74-3.37-2.28-5.11-1.21c-1.74,1.07-2.28,3.37-1.21,5.11c1.07,1.74,3.37,2.28,5.11,1.21
			C27.4,281.54,27.94,279.25,26.87,277.51z"/>
		<path class="st3" d="M42.07,279.85l-8.98-9.38l-8.98-9.38l-9.38,8.98l-9.38,8.98l8.98,9.38l8.98,9.38l9.38-8.98L42.07,279.85z
			 M17.56,285.03c-5.21-5.76-5.18-6.51,0.58-11.72c5.76-5.21,6.51-5.18,11.72,0.58s5.18,6.51-0.58,11.72
			C23.52,290.83,22.77,290.79,17.56,285.03z"/>
		<path class="st2" d="M40.55,311.41c1.07,1.74,3.37,2.28,5.11,1.21c1.74-1.07,2.28-3.37,1.21-5.11c-1.07-1.74-3.37-2.28-5.11-1.21
			C40.02,307.38,39.48,309.68,40.55,311.41z"/>
		<path class="st1" d="M41.76,286.3c-1.74,1.07-2.28,3.37-1.21,5.11c1.07,1.74,3.37,2.28,5.11,1.21c1.74-1.07,2.28-3.37,1.21-5.11
			C45.79,285.77,43.49,285.23,41.76,286.3z"/>
		<path class="st1" d="M23.32,257.82l9.38-8.98c0,0,8.93-8.56,9.22-8.84h-8.24c-0.1,1.54-1.54,3.03-4.4,5.61
			c-5.76,5.21-6.51,5.18-11.72-0.58c-2.04-2.26-3.25-3.74-3.65-5.03H6.24l8.09,8.44L23.32,257.82z"/>
		<path class="st3" d="M20.55,241.41c1.07,1.74,3.37,2.28,5.11,1.21c0.96-0.6,1.51-1.57,1.67-2.62h-7.29
			C20.11,240.49,20.28,240.97,20.55,241.41z"/>
		<path class="st0" d="M6.87,247.51c-1.07-1.74-3.37-2.28-5.11-1.21c-1.74,1.07-2.28,3.37-1.21,5.11c1.07,1.74,3.37,2.28,5.11,1.21
			C7.4,251.54,7.94,249.25,6.87,247.51z"/>
		<path class="st2" d="M46.87,247.51c-1.07-1.74-3.37-2.28-5.11-1.21c-1.74,1.07-2.28,3.37-1.21,5.11c1.07,1.74,3.37,2.28,5.11,1.21
			C47.4,251.54,47.94,249.25,46.87,247.51z"/>
		<path class="st0" d="M0.55,311.41c1.07,1.74,3.37,2.28,5.11,1.21c1.74-1.07,2.28-3.37,1.21-5.11c-1.07-1.74-3.37-2.28-5.11-1.21
			C0.02,307.38-0.52,309.68,0.55,311.41z"/>
		<path class="st3" d="M26.87,317.51c-1.07-1.74-3.37-2.28-5.11-1.21c-1.29,0.8-1.92,2.28-1.71,3.7h7.29
			C27.45,319.16,27.34,318.28,26.87,317.51z"/>
		<path class="st1" d="M33.09,310.48l-8.98-9.38l-9.38,8.98l-9.38,8.98L6.24,320h7.66c-0.62-2,0.73-3.52,4.24-6.69
			c5.76-5.21,6.51-5.18,11.72,0.58c2.63,2.91,3.91,4.54,3.81,6.11h8.24c0,0,0.15-0.15,0.15-0.15L33.09,310.48z"/>
	</g>
	<g>
		<path class="st0" d="M6.87,187.51c-1.07-1.74-3.37-2.28-5.11-1.21c-1.74,1.07-2.28,3.37-1.21,5.11c1.07,1.74,3.37,2.28,5.11,1.21
			C7.4,191.54,7.94,189.25,6.87,187.51z"/>
		<path class="st0" d="M6.87,207.51c-1.07-1.74-3.37-2.28-5.11-1.21c-1.74,1.07-2.28,3.37-1.21,5.11c1.07,1.74,3.37,2.28,5.11,1.21
			C7.4,211.54,7.94,209.25,6.87,207.51z"/>
		<path class="st1" d="M40.55,191.41c1.07,1.74,3.37,2.28,5.11,1.21c1.74-1.07,2.28-3.37,1.21-5.11c-1.07-1.74-3.37-2.28-5.11-1.21
			C40.02,187.38,39.48,189.68,40.55,191.41z"/>
		<path class="st2" d="M26.87,197.51c-1.07-1.74-3.37-2.28-5.11-1.21c-1.74,1.07-2.28,3.37-1.21,5.11c1.07,1.74,3.37,2.28,5.11,1.21
			C27.4,201.54,27.94,199.25,26.87,197.51z"/>
		<path class="st3" d="M42.07,199.85l-8.98-9.38l-8.98-9.38l-9.38,8.98l-9.38,8.98l8.98,9.38l8.98,9.38l9.38-8.98L42.07,199.85z
			 M17.56,205.03c-5.21-5.76-5.18-6.51,0.58-11.72c5.76-5.21,6.51-5.18,11.72,0.58c5.21,5.76,5.18,6.51-0.58,11.72
			C23.52,210.83,22.77,210.79,17.56,205.03z"/>
		<path class="st2" d="M40.55,231.41c1.07,1.74,3.37,2.28,5.11,1.21c1.74-1.07,2.28-3.37,1.21-5.11c-1.07-1.74-3.37-2.28-5.11-1.21
			C40.02,227.38,39.48,229.68,40.55,231.41z"/>
		<path class="st1" d="M41.76,206.3c-1.74,1.07-2.28,3.37-1.21,5.11c1.07,1.74,3.37,2.28,5.11,1.21c1.74-1.07,2.28-3.37,1.21-5.11
			C45.79,205.77,43.49,205.23,41.76,206.3z"/>
		<path class="st1" d="M23.32,177.82l9.38-8.98c0,0,8.93-8.56,9.22-8.84h-8.24c-0.1,1.54-1.54,3.03-4.4,5.61
			c-5.76,5.21-6.51,5.18-11.72-0.58c-2.04-2.26-3.25-3.74-3.65-5.03H6.24l8.09,8.44L23.32,177.82z"/>
		<path class="st3" d="M20.55,161.41c1.07,1.74,3.37,2.28,5.11,1.21c0.96-0.6,1.51-1.57,1.67-2.62h-7.29
			C20.11,160.49,20.28,160.97,20.55,161.41z"/>
		<path class="st0" d="M6.87,167.51c-1.07-1.74-3.37-2.28-5.11-1.21c-1.74,1.07-2.28,3.37-1.21,5.11c1.07,1.74,3.37,2.28,5.11,1.21
			C7.4,171.54,7.94,169.25,6.87,167.51z"/>
		<path class="st2" d="M46.87,167.51c-1.07-1.74-3.37-2.28-5.11-1.21c-1.74,1.07-2.28,3.37-1.21,5.11c1.07,1.74,3.37,2.28,5.11,1.21
			C47.4,171.54,47.94,169.25,46.87,167.51z"/>
		<path class="st0" d="M0.55,231.41c1.07,1.74,3.37,2.28,5.11,1.21c1.74-1.07,2.28-3.37,1.21-5.11c-1.07-1.74-3.37-2.28-5.11-1.21
			C0.02,227.38-0.52,229.68,0.55,231.41z"/>
		<path class="st3" d="M26.87,237.51c-1.07-1.74-3.37-2.28-5.11-1.21c-1.29,0.8-1.92,2.28-1.71,3.7h7.29
			C27.45,239.16,27.34,238.28,26.87,237.51z"/>
		<path class="st1" d="M33.09,230.48l-8.98-9.38l-9.38,8.98l-9.38,8.98L6.24,240h7.66c-0.62-2,0.73-3.52,4.24-6.69
			c5.76-5.21,6.51-5.18,11.72,0.58c2.63,2.91,3.91,4.54,3.81,6.11h8.24c0,0,0.15-0.15,0.15-0.15L33.09,230.48z"/>
	</g>
	<g>
		<path class="st0" d="M6.87,107.51c-1.07-1.74-3.37-2.28-5.11-1.21c-1.74,1.07-2.28,3.37-1.21,5.11c1.07,1.74,3.37,2.28,5.11,1.21
			C7.4,111.54,7.94,109.25,6.87,107.51z"/>
		<path class="st0" d="M6.87,127.51c-1.07-1.74-3.37-2.28-5.11-1.21c-1.74,1.07-2.28,3.37-1.21,5.11c1.07,1.74,3.37,2.28,5.11,1.21
			C7.4,131.54,7.94,129.25,6.87,127.51z"/>
		<path class="st1" d="M40.55,111.41c1.07,1.74,3.37,2.28,5.11,1.21c1.74-1.07,2.28-3.37,1.21-5.11c-1.07-1.74-3.37-2.28-5.11-1.21
			C40.02,107.38,39.48,109.68,40.55,111.41z"/>
		<path class="st2" d="M26.87,117.51c-1.07-1.74-3.37-2.28-5.11-1.21c-1.74,1.07-2.28,3.37-1.21,5.11c1.07,1.74,3.37,2.28,5.11,1.21
			C27.4,121.54,27.94,119.25,26.87,117.51z"/>
		<path class="st3" d="M42.07,119.85l-8.98-9.38l-8.98-9.38l-9.38,8.98l-9.38,8.98l8.98,9.38l8.98,9.38l9.38-8.98L42.07,119.85z
			 M17.56,125.03c-5.21-5.76-5.18-6.51,0.58-11.72c5.76-5.21,6.51-5.18,11.72,0.58s5.18,6.51-0.58,11.72
			C23.52,130.83,22.77,130.79,17.56,125.03z"/>
		<path class="st2" d="M40.55,151.41c1.07,1.74,3.37,2.28,5.11,1.21c1.74-1.07,2.28-3.37,1.21-5.11c-1.07-1.74-3.37-2.28-5.11-1.21
			C40.02,147.38,39.48,149.68,40.55,151.41z"/>
		<path class="st1" d="M41.76,126.3c-1.74,1.07-2.28,3.37-1.21,5.11c1.07,1.74,3.37,2.28,5.11,1.21c1.74-1.07,2.28-3.37,1.21-5.11
			C45.79,125.77,43.49,125.23,41.76,126.3z"/>
		<path class="st1" d="M23.32,97.82l9.38-8.98c0,0,8.93-8.56,9.22-8.84h-8.24c-0.1,1.54-1.54,3.03-4.4,5.61
			c-5.76,5.21-6.51,5.18-11.72-0.58c-2.04-2.26-3.25-3.74-3.65-5.03H6.24l8.09,8.44L23.32,97.82z"/>
		<path class="st3" d="M20.55,81.41c1.07,1.74,3.37,2.28,5.11,1.21c0.96-0.6,1.51-1.57,1.67-2.62h-7.29
			C20.11,80.49,20.28,80.97,20.55,81.41z"/>
		<path class="st0" d="M6.87,87.51c-1.07-1.74-3.37-2.28-5.11-1.21c-1.74,1.07-2.28,3.37-1.21,5.11c1.07,1.74,3.37,2.28,5.11,1.21
			C7.4,91.54,7.94,89.25,6.87,87.51z"/>
		<path class="st2" d="M46.87,87.51c-1.07-1.74-3.37-2.28-5.11-1.21c-1.74,1.07-2.28,3.37-1.21,5.11c1.07,1.74,3.37,2.28,5.11,1.21
			C47.4,91.54,47.94,89.25,46.87,87.51z"/>
		<path class="st0" d="M0.55,151.41c1.07,1.74,3.37,2.28,5.11,1.21c1.74-1.07,2.28-3.37,1.21-5.11c-1.07-1.74-3.37-2.28-5.11-1.21
			C0.02,147.38-0.52,149.68,0.55,151.41z"/>
		<path class="st3" d="M26.87,157.51c-1.07-1.74-3.37-2.28-5.11-1.21c-1.29,0.8-1.92,2.28-1.71,3.7h7.29
			C27.45,159.16,27.34,158.28,26.87,157.51z"/>
		<path class="st1" d="M33.09,150.48l-8.98-9.38l-9.38,8.98l-9.38,8.98L6.24,160h7.66c-0.62-2,0.73-3.52,4.24-6.69
			c5.76-5.21,6.51-5.18,11.72,0.58c2.63,2.91,3.91,4.54,3.81,6.11h8.24c0,0,0.15-0.15,0.15-0.15L33.09,150.48z"/>
	</g>
	<g>
		<path class="st0" d="M6.87,27.51c-1.07-1.74-3.37-2.28-5.11-1.21c-1.74,1.07-2.28,3.37-1.21,5.11c1.07,1.74,3.37,2.28,5.11,1.21
			C7.4,31.55,7.94,29.25,6.87,27.51z"/>
		<path class="st0" d="M6.87,47.51c-1.07-1.74-3.37-2.28-5.11-1.21c-1.74,1.07-2.28,3.37-1.21,5.11c1.07,1.74,3.37,2.28,5.11,1.21
			C7.4,51.54,7.94,49.25,6.87,47.51z"/>
		<path class="st1" d="M40.55,31.41c1.07,1.74,3.37,2.28,5.11,1.21c1.74-1.07,2.28-3.37,1.21-5.11c-1.07-1.74-3.37-2.28-5.11-1.21
			C40.02,27.38,39.48,29.68,40.55,31.41z"/>
		<path class="st2" d="M26.87,37.51c-1.07-1.74-3.37-2.28-5.11-1.21c-1.74,1.07-2.28,3.37-1.21,5.11c1.07,1.74,3.37,2.28,5.11,1.21
			C27.4,41.54,27.94,39.25,26.87,37.51z"/>
		<path class="st3" d="M42.07,39.85l-8.98-9.38L24.1,21.1l-9.38,8.98l-9.38,8.98l8.98,9.38l8.98,9.38l9.38-8.98L42.07,39.85z
			 M17.56,45.03c-5.21-5.76-5.18-6.51,0.58-11.72c5.76-5.21,6.51-5.18,11.72,0.58s5.18,6.51-0.58,11.72
			C23.52,50.83,22.77,50.79,17.56,45.03z"/>
		<path class="st2" d="M40.55,71.41c1.07,1.74,3.37,2.28,5.11,1.21c1.74-1.07,2.28-3.37,1.21-5.11c-1.07-1.74-3.37-2.28-5.11-1.21
			C40.02,67.38,39.48,69.68,40.55,71.41z"/>
		<path class="st1" d="M41.76,46.3c-1.74,1.07-2.28,3.37-1.21,5.11c1.07,1.74,3.37,2.28,5.11,1.21c1.74-1.07,2.28-3.37,1.21-5.11
			C45.79,45.77,43.49,45.23,41.76,46.3z"/>
		<path class="st1" d="M23.32,17.82l9.38-8.98c0,0,8.93-8.56,9.22-8.84h-8.24c-0.1,1.54-1.54,3.03-4.4,5.61
			c-5.76,5.21-6.51,5.18-11.72-0.58C15.51,2.77,14.31,1.29,13.9,0H6.24l8.09,8.44L23.32,17.82z"/>
		<path class="st3" d="M20.55,1.41c1.07,1.74,3.37,2.28,5.11,1.21c0.96-0.6,1.51-1.57,1.67-2.62h-7.29
			C20.11,0.49,20.28,0.97,20.55,1.41z"/>
		<path class="st0" d="M6.87,7.51C5.79,5.77,3.49,5.23,1.76,6.3c-1.74,1.07-2.28,3.37-1.21,5.11c1.07,1.74,3.37,2.28,5.11,1.21
			C7.4,11.55,7.94,9.25,6.87,7.51z"/>
		<path class="st2" d="M46.87,7.51c-1.07-1.74-3.37-2.28-5.11-1.21c-1.74,1.07-2.28,3.37-1.21,5.11c1.07,1.74,3.37,2.28,5.11,1.21
			C47.4,11.55,47.94,9.25,46.87,7.51z"/>
		<path class="st0" d="M0.55,71.41c1.07,1.74,3.37,2.28,5.11,1.21c1.74-1.07,2.28-3.37,1.21-5.11c-1.07-1.74-3.37-2.28-5.11-1.21
			C0.02,67.38-0.52,69.68,0.55,71.41z"/>
		<path class="st3" d="M26.87,77.51c-1.07-1.74-3.37-2.28-5.11-1.21c-1.29,0.8-1.92,2.28-1.71,3.7h7.29
			C27.45,79.16,27.34,78.28,26.87,77.51z"/>
		<path class="st1" d="M33.09,70.48L24.1,61.1l-9.38,8.98l-9.38,8.98L6.24,80h7.66c-0.62-2,0.73-3.52,4.24-6.69
			c5.76-5.21,6.51-5.18,11.72,0.58c2.63,2.91,3.91,4.54,3.81,6.11h8.24c0,0,0.15-0.15,0.15-0.15L33.09,70.48z"/>
	</g>
</g>
</svg>
