<?xml version="1.0" encoding="utf-8"?>
<!-- Generator: Adobe Illustrator 26.0.3, SVG Export Plug-In . SVG Version: 6.00 Build 0)  -->
<svg version="1.1" id="Layer_1" xmlns="http://www.w3.org/2000/svg" xmlns:xlink="http://www.w3.org/1999/xlink" x="0px" y="0px"
	 viewBox="0 0 47.42 800" style="enable-background:new 0 0 47.42 800;" xml:space="preserve">
<style type="text/css">
	.st0{fill:#20C7AB;}
	.st1{fill:#FFA227;}
	.st2{fill:#BF2C2F;}
	.st3{fill:#388CBA;}
</style>
<g>
	<g>
		<path class="st0" d="M40.38,11.96c0-1.11,0-2.22,0-3.33c0-1.11,0-2.22,0-3.33c0-1.11-0.14-2.08-0.42-2.92
			c-0.28-0.83-0.69-1.25-1.25-1.25c-0.56,0-1.11,0.28-1.67,0.83c-0.56,0.56-1.11,1.11-1.67,1.67c-0.56,0.56-1.11,1.11-1.67,1.67
			c-0.56,0.56-1.11,1.11-1.67,1.67c-0.56,0.56-1.11,1.11-1.67,1.67c-0.56,0.56-1.11,1.11-1.67,1.67c-0.56,0.56-0.97,1.25-1.25,2.08
			c-0.28,0.83-0.28,1.67,0,2.5c0.28,0.83,0.69,1.53,1.25,2.08c0.56,0.56,1.11,1.11,1.67,1.67c0.56,0.56,1.11,1.11,1.67,1.67
			c0.56,0.56,1.11,1.11,1.67,1.67c0.56,0.56,1.11,1.11,1.67,1.67c0.56,0.56,1.11,1.11,1.67,1.67c0.56,0.56,1.11,0.83,1.67,0.83
			c0.56,0,0.97-0.42,1.25-1.25c0.28-0.83,0.42-1.81,0.42-2.92c0-1.11,0-2.22,0-3.33c0-1.11,0-2.22,0-3.33
			C40.38,14.18,40.38,13.07,40.38,11.96z M35.38,16.13c-0.56,0-0.97-0.42-1.25-1.25c-0.28-0.83-0.28-1.67,0-2.5
			c0.28-0.83,0.69-1.25,1.25-1.25c0.56,0,0.97,0.42,1.25,1.25c0.28,0.83,0.28,1.67,0,2.5C36.35,15.71,35.93,16.13,35.38,16.13z"/>
		<path class="st0" d="M35.38,43.63c-0.56,0.56-1.11,1.11-1.67,1.67c-0.56,0.56-1.11,1.11-1.67,1.67c-0.56,0.56-1.11,1.11-1.67,1.67
			c-0.56,0.56-1.11,1.11-1.67,1.67c-0.56,0.56-0.97,1.25-1.25,2.08c-0.28,0.83-0.28,1.67,0,2.5c0.28,0.83,0.69,1.53,1.25,2.08
			c0.56,0.56,1.11,1.11,1.67,1.67c0.56,0.56,1.11,1.11,1.67,1.67c0.56,0.56,1.11,1.11,1.67,1.67c0.56,0.56,1.11,1.11,1.67,1.67
			c0.56,0.56,1.11,1.11,1.67,1.67c0.56,0.56,1.11,0.83,1.67,0.83c0.56,0,0.97-0.42,1.25-1.25c0.28-0.83,0.42-1.81,0.42-2.92
			c0-1.11,0-2.22,0-3.33c0-1.11,0-2.22,0-3.33c0-1.11,0-2.22,0-3.33c0-1.11,0-2.22,0-3.33c0-1.11,0-2.22,0-3.33
			c0-1.11-0.14-2.08-0.42-2.92c-0.28-0.83-0.69-1.25-1.25-1.25c-0.56,0-1.11,0.28-1.67,0.83C36.49,42.52,35.93,43.07,35.38,43.63z
			 M36.63,52.38c0.28,0.83,0.28,1.67,0,2.5c-0.28,0.83-0.69,1.25-1.25,1.25c-0.56,0-0.97-0.42-1.25-1.25c-0.28-0.83-0.28-1.67,0-2.5
			c0.28-0.83,0.69-1.25,1.25-1.25C35.93,51.13,36.35,51.54,36.63,52.38z"/>
		<path class="st1" d="M29.13,77.38c0.83-0.28,1.67-0.56,2.5-0.83c0.83-0.28,1.39-0.83,1.67-1.67c0.28-0.83,0.28-1.67,0-2.5
			c-0.28-0.83-0.83-1.39-1.67-1.67c-0.83-0.28-1.67-0.56-2.5-0.83c-0.83-0.28-1.39-0.83-1.67-1.67c-0.28-0.83-0.56-1.67-0.83-2.5
			c-0.28-0.83-0.69-1.53-1.25-2.08c-0.56-0.56-0.97-1.25-1.25-2.08c-0.28-0.83-0.56-1.67-0.83-2.5c-0.28-0.83-0.69-1.53-1.25-2.08
			c-0.56-0.56-0.97-1.25-1.25-2.08c-0.28-0.83-0.28-1.67,0-2.5c0.28-0.83,0.69-1.53,1.25-2.08c0.56-0.56,0.97-1.25,1.25-2.08
			c0.28-0.83,0.56-1.67,0.83-2.5c0.28-0.83,0.69-1.53,1.25-2.08c0.56-0.56,0.97-1.25,1.25-2.08c0.28-0.83,0.56-1.67,0.83-2.5
			c0.28-0.83,0.83-1.39,1.67-1.67c0.83-0.28,1.67-0.56,2.5-0.83c0.83-0.28,1.39-0.83,1.67-1.67c0.28-0.83,0.28-1.67,0-2.5
			c-0.28-0.83-0.83-1.39-1.67-1.67c-0.83-0.28-1.67-0.56-2.5-0.83c-0.83-0.28-1.39-0.83-1.67-1.67c-0.28-0.83-0.56-1.67-0.83-2.5
			c-0.28-0.83-0.69-1.53-1.25-2.08c-0.56-0.56-0.97-1.25-1.25-2.08c-0.28-0.83-0.56-1.67-0.83-2.5c-0.28-0.83-0.69-1.53-1.25-2.08
			c-0.56-0.56-0.97-1.25-1.25-2.08c-0.28-0.83-0.28-1.67,0-2.5c0.28-0.83,0.69-1.53,1.25-2.08c0.56-0.56,0.97-1.25,1.25-2.08
			c0.28-0.83,0.56-1.67,0.83-2.5c0.28-0.83,0.69-1.53,1.25-2.08c0.56-0.56,0.97-1.25,1.25-2.08C26.8,1.03,26.97,0.51,27.14,0h-3.33
			c-0.17,0.51-0.34,1.03-0.51,1.54c-0.28,0.83-0.69,1.53-1.25,2.08c-0.56,0.56-0.97,1.25-1.25,2.08c-0.28,0.83-0.56,1.67-0.83,2.5
			c-0.28,0.83-0.83,1.39-1.67,1.67c-0.83,0.28-1.67,0.56-2.5,0.83c-0.83,0.28-1.39,0.83-1.67,1.67c-0.28,0.83-0.28,1.67,0,2.5
			c0.28,0.83,0.83,1.39,1.67,1.67c0.83,0.28,1.67,0.56,2.5,0.83c0.83,0.28,1.39,0.83,1.67,1.67c0.28,0.83,0.56,1.67,0.83,2.5
			c0.28,0.83,0.69,1.53,1.25,2.08c0.56,0.56,0.97,1.25,1.25,2.08c0.28,0.83,0.56,1.67,0.83,2.5c0.28,0.83,0.69,1.53,1.25,2.08
			c0.56,0.56,0.97,1.25,1.25,2.08c0.28,0.83,0.28,1.67,0,2.5c-0.28,0.83-0.69,1.53-1.25,2.08c-0.56,0.56-0.97,1.25-1.25,2.08
			c-0.28,0.83-0.56,1.67-0.83,2.5c-0.28,0.83-0.69,1.53-1.25,2.08c-0.56,0.56-0.97,1.25-1.25,2.08c-0.28,0.83-0.56,1.67-0.83,2.5
			c-0.28,0.83-0.83,1.39-1.67,1.67c-0.83,0.28-1.67,0.56-2.5,0.83c-0.83,0.28-1.39,0.83-1.67,1.67c-0.28,0.83-0.28,1.67,0,2.5
			c0.28,0.83,0.83,1.39,1.67,1.67c0.83,0.28,1.67,0.56,2.5,0.83c0.83,0.28,1.39,0.83,1.67,1.67c0.28,0.83,0.56,1.67,0.83,2.5
			c0.28,0.83,0.69,1.53,1.25,2.08c0.56,0.56,0.97,1.25,1.25,2.08c0.28,0.83,0.56,1.67,0.83,2.5c0.28,0.83,0.69,1.53,1.25,2.08
			c0.56,0.56,0.97,1.25,1.25,2.08c0.28,0.83,0.28,1.67,0,2.5c-0.28,0.83-0.69,1.53-1.25,2.08c-0.56,0.56-0.97,1.25-1.25,2.08
			c-0.11,0.32-0.21,0.64-0.32,0.96h3.33c0.11-0.32,0.21-0.64,0.32-0.96C27.74,78.21,28.29,77.65,29.13,77.38z"/>
		<path class="st2" d="M7.46,4.88c0.28,0.83,0.69,1.25,1.25,1.25c0.56,0,1.11-0.28,1.67-0.83c0.56-0.56,1.11-1.11,1.67-1.67
			c0.56-0.56,1.11-1.11,1.67-1.67c0.56-0.56,1.11-1.11,1.67-1.67c0.1-0.1,0.2-0.2,0.29-0.29H7.04c0,0.65,0,1.31,0,1.96
			C7.04,3.07,7.18,4.04,7.46,4.88z"/>
		<path class="st3" d="M12.04,43.63c0.56-0.56,1.11-1.11,1.67-1.67c0.56-0.56,1.11-1.11,1.67-1.67c0.56-0.56,1.11-1.11,1.67-1.67
			c0.56-0.56,1.11-1.11,1.67-1.67c0.56-0.56,0.97-1.25,1.25-2.08c0.28-0.83,0.28-1.67,0-2.5c-0.28-0.83-0.69-1.53-1.25-2.08
			c-0.56-0.56-1.11-1.11-1.67-1.67c-0.56-0.56-1.11-1.11-1.67-1.67c-0.56-0.56-1.11-1.11-1.67-1.67c-0.56-0.56-1.11-1.11-1.67-1.67
			c-0.56-0.56-1.11-1.11-1.67-1.67c-0.56-0.56-1.11-0.83-1.67-0.83c-0.56,0-0.97,0.42-1.25,1.25c-0.28,0.83-0.42,1.81-0.42,2.92
			c0,1.11,0,2.22,0,3.33c0,1.11,0,2.22,0,3.33c0,1.11,0,2.22,0,3.33c0,1.11,0,2.22,0,3.33c0,1.11,0,2.22,0,3.33
			c0,1.11,0.14,2.08,0.42,2.92c0.28,0.83,0.69,1.25,1.25,1.25c0.56,0,1.11-0.28,1.67-0.83C10.93,44.74,11.49,44.18,12.04,43.63z
			 M10.79,34.88c-0.28-0.83-0.28-1.67,0-2.5c0.28-0.83,0.69-1.25,1.25-1.25c0.56,0,0.97,0.42,1.25,1.25c0.28,0.83,0.28,1.67,0,2.5
			c-0.28,0.83-0.69,1.25-1.25,1.25C11.49,36.13,11.07,35.71,10.79,34.88z"/>
		<path class="st2" d="M18.71,76.96c0.56-0.56,0.97-1.25,1.25-2.08c0.28-0.83,0.28-1.67,0-2.5c-0.28-0.83-0.69-1.53-1.25-2.08
			c-0.56-0.56-1.11-1.11-1.67-1.67c-0.56-0.56-1.11-1.11-1.67-1.67c-0.56-0.56-1.11-1.11-1.67-1.67c-0.56-0.56-1.11-1.11-1.67-1.67
			c-0.56-0.56-1.11-1.11-1.67-1.67c-0.56-0.56-1.11-0.83-1.67-0.83c-0.56,0-0.97,0.42-1.25,1.25c-0.28,0.83-0.42,1.81-0.42,2.92
			c0,1.11,0,2.22,0,3.33c0,1.11,0,2.22,0,3.33c0,1.11,0,2.22,0,3.33c0,1.11,0,2.22,0,3.33c0,0.46,0,0.92,0,1.37h8.63
			c0.46-0.46,0.92-0.92,1.37-1.37C17.6,78.07,18.15,77.52,18.71,76.96z M10.79,74.88c-0.28-0.83-0.28-1.67,0-2.5
			c0.28-0.83,0.69-1.25,1.25-1.25c0.56,0,0.97,0.42,1.25,1.25c0.28,0.83,0.28,1.67,0,2.5c-0.28,0.83-0.69,1.25-1.25,1.25
			C11.49,76.13,11.07,75.71,10.79,74.88z"/>
	</g>
	<g>
		<path class="st0" d="M40.38,91.96c0-1.11,0-2.22,0-3.33c0-1.11,0-2.22,0-3.33c0-1.11-0.14-2.08-0.42-2.92
			c-0.28-0.83-0.69-1.25-1.25-1.25c-0.56,0-1.11,0.28-1.67,0.83c-0.56,0.56-1.11,1.11-1.67,1.67c-0.56,0.56-1.11,1.11-1.67,1.67
			c-0.56,0.56-1.11,1.11-1.67,1.67c-0.56,0.56-1.11,1.11-1.67,1.67c-0.56,0.56-1.11,1.11-1.67,1.67c-0.56,0.56-0.97,1.25-1.25,2.08
			c-0.28,0.83-0.28,1.67,0,2.5c0.28,0.83,0.69,1.53,1.25,2.08c0.56,0.56,1.11,1.11,1.67,1.67c0.56,0.56,1.11,1.11,1.67,1.67
			c0.56,0.56,1.11,1.11,1.67,1.67c0.56,0.56,1.11,1.11,1.67,1.67c0.56,0.56,1.11,1.11,1.67,1.67c0.56,0.56,1.11,0.83,1.67,0.83
			c0.56,0,0.97-0.42,1.25-1.25c0.28-0.83,0.42-1.81,0.42-2.92c0-1.11,0-2.22,0-3.33c0-1.11,0-2.22,0-3.33
			C40.38,94.18,40.38,93.07,40.38,91.96z M35.38,96.13c-0.56,0-0.97-0.42-1.25-1.25c-0.28-0.83-0.28-1.67,0-2.5
			c0.28-0.83,0.69-1.25,1.25-1.25c0.56,0,0.97,0.42,1.25,1.25c0.28,0.83,0.28,1.67,0,2.5C36.35,95.71,35.93,96.13,35.38,96.13z"/>
		<path class="st0" d="M35.38,123.63c-0.56,0.56-1.11,1.11-1.67,1.67c-0.56,0.56-1.11,1.11-1.67,1.67
			c-0.56,0.56-1.11,1.11-1.67,1.67c-0.56,0.56-1.11,1.11-1.67,1.67c-0.56,0.56-0.97,1.25-1.25,2.08c-0.28,0.83-0.28,1.67,0,2.5
			c0.28,0.83,0.69,1.53,1.25,2.08c0.56,0.56,1.11,1.11,1.67,1.67c0.56,0.56,1.11,1.11,1.67,1.67c0.56,0.56,1.11,1.11,1.67,1.67
			c0.56,0.56,1.11,1.11,1.67,1.67c0.56,0.56,1.11,1.11,1.67,1.67c0.56,0.56,1.11,0.83,1.67,0.83c0.56,0,0.97-0.42,1.25-1.25
			c0.28-0.83,0.42-1.81,0.42-2.92c0-1.11,0-2.22,0-3.33c0-1.11,0-2.22,0-3.33c0-1.11,0-2.22,0-3.33c0-1.11,0-2.22,0-3.33
			c0-1.11,0-2.22,0-3.33c0-1.11-0.14-2.08-0.42-2.92c-0.28-0.83-0.69-1.25-1.25-1.25c-0.56,0-1.11,0.28-1.67,0.83
			C36.49,122.52,35.93,123.07,35.38,123.63z M36.63,132.38c0.28,0.83,0.28,1.67,0,2.5c-0.28,0.83-0.69,1.25-1.25,1.25
			c-0.56,0-0.97-0.42-1.25-1.25c-0.28-0.83-0.28-1.67,0-2.5c0.28-0.83,0.69-1.25,1.25-1.25C35.93,131.13,36.35,131.54,36.63,132.38z
			"/>
		<path class="st1" d="M29.13,157.38c0.83-0.28,1.67-0.56,2.5-0.83c0.83-0.28,1.39-0.83,1.67-1.67c0.28-0.83,0.28-1.67,0-2.5
			c-0.28-0.83-0.83-1.39-1.67-1.67c-0.83-0.28-1.67-0.56-2.5-0.83c-0.83-0.28-1.39-0.83-1.67-1.67c-0.28-0.83-0.56-1.67-0.83-2.5
			c-0.28-0.83-0.69-1.53-1.25-2.08c-0.56-0.56-0.97-1.25-1.25-2.08c-0.28-0.83-0.56-1.67-0.83-2.5c-0.28-0.83-0.69-1.53-1.25-2.08
			c-0.56-0.56-0.97-1.25-1.25-2.08c-0.28-0.83-0.28-1.67,0-2.5c0.28-0.83,0.69-1.53,1.25-2.08c0.56-0.56,0.97-1.25,1.25-2.08
			c0.28-0.83,0.56-1.67,0.83-2.5c0.28-0.83,0.69-1.53,1.25-2.08c0.56-0.56,0.97-1.25,1.25-2.08c0.28-0.83,0.56-1.67,0.83-2.5
			c0.28-0.83,0.83-1.39,1.67-1.67c0.83-0.28,1.67-0.56,2.5-0.83c0.83-0.28,1.39-0.83,1.67-1.67c0.28-0.83,0.28-1.67,0-2.5
			c-0.28-0.83-0.83-1.39-1.67-1.67c-0.83-0.28-1.67-0.56-2.5-0.83c-0.83-0.28-1.39-0.83-1.67-1.67c-0.28-0.83-0.56-1.67-0.83-2.5
			c-0.28-0.83-0.69-1.53-1.25-2.08c-0.56-0.56-0.97-1.25-1.25-2.08c-0.28-0.83-0.56-1.67-0.83-2.5c-0.28-0.83-0.69-1.53-1.25-2.08
			c-0.56-0.56-0.97-1.25-1.25-2.08c-0.28-0.83-0.28-1.67,0-2.5c0.28-0.83,0.69-1.53,1.25-2.08c0.56-0.56,0.97-1.25,1.25-2.08
			c0.28-0.83,0.56-1.67,0.83-2.5c0.28-0.83,0.69-1.53,1.25-2.08c0.56-0.56,0.97-1.25,1.25-2.08c0.17-0.51,0.34-1.03,0.51-1.54h-3.33
			c-0.17,0.51-0.34,1.03-0.51,1.54c-0.28,0.83-0.69,1.53-1.25,2.08c-0.56,0.56-0.97,1.25-1.25,2.08c-0.28,0.83-0.56,1.67-0.83,2.5
			c-0.28,0.83-0.83,1.39-1.67,1.67c-0.83,0.28-1.67,0.56-2.5,0.83c-0.83,0.28-1.39,0.83-1.67,1.67c-0.28,0.83-0.28,1.67,0,2.5
			c0.28,0.83,0.83,1.39,1.67,1.67c0.83,0.28,1.67,0.56,2.5,0.83c0.83,0.28,1.39,0.83,1.67,1.67c0.28,0.83,0.56,1.67,0.83,2.5
			c0.28,0.83,0.69,1.53,1.25,2.08c0.56,0.56,0.97,1.25,1.25,2.08c0.28,0.83,0.56,1.67,0.83,2.5c0.28,0.83,0.69,1.53,1.25,2.08
			c0.56,0.56,0.97,1.25,1.25,2.08c0.28,0.83,0.28,1.67,0,2.5c-0.28,0.83-0.69,1.53-1.25,2.08c-0.56,0.56-0.97,1.25-1.25,2.08
			c-0.28,0.83-0.56,1.67-0.83,2.5c-0.28,0.83-0.69,1.53-1.25,2.08c-0.56,0.56-0.97,1.25-1.25,2.08c-0.28,0.83-0.56,1.67-0.83,2.5
			c-0.28,0.83-0.83,1.39-1.67,1.67c-0.83,0.28-1.67,0.56-2.5,0.83c-0.83,0.28-1.39,0.83-1.67,1.67c-0.28,0.83-0.28,1.67,0,2.5
			c0.28,0.83,0.83,1.39,1.67,1.67c0.83,0.28,1.67,0.56,2.5,0.83c0.83,0.28,1.39,0.83,1.67,1.67c0.28,0.83,0.56,1.67,0.83,2.5
			c0.28,0.83,0.69,1.53,1.25,2.08c0.56,0.56,0.97,1.25,1.25,2.08c0.28,0.83,0.56,1.67,0.83,2.5c0.28,0.83,0.69,1.53,1.25,2.08
			c0.56,0.56,0.97,1.25,1.25,2.08c0.28,0.83,0.28,1.67,0,2.5c-0.28,0.83-0.69,1.53-1.25,2.08c-0.56,0.56-0.97,1.25-1.25,2.08
			c-0.11,0.32-0.21,0.64-0.32,0.96h3.33c0.11-0.32,0.21-0.64,0.32-0.96C27.74,158.21,28.29,157.65,29.13,157.38z"/>
		<path class="st2" d="M7.46,84.88c0.28,0.83,0.69,1.25,1.25,1.25c0.56,0,1.11-0.28,1.67-0.83c0.56-0.56,1.11-1.11,1.67-1.67
			c0.56-0.56,1.11-1.11,1.67-1.67c0.56-0.56,1.11-1.11,1.67-1.67c0.1-0.1,0.2-0.2,0.29-0.29H7.04c0,0.65,0,1.31,0,1.96
			C7.04,83.07,7.18,84.04,7.46,84.88z"/>
		<path class="st3" d="M12.04,123.63c0.56-0.56,1.11-1.11,1.67-1.67c0.56-0.56,1.11-1.11,1.67-1.67c0.56-0.56,1.11-1.11,1.67-1.67
			c0.56-0.56,1.11-1.11,1.67-1.67c0.56-0.56,0.97-1.25,1.25-2.08c0.28-0.83,0.28-1.67,0-2.5c-0.28-0.83-0.69-1.53-1.25-2.08
			c-0.56-0.56-1.11-1.11-1.67-1.67c-0.56-0.56-1.11-1.11-1.67-1.67c-0.56-0.56-1.11-1.11-1.67-1.67c-0.56-0.56-1.11-1.11-1.67-1.67
			c-0.56-0.56-1.11-1.11-1.67-1.67c-0.56-0.56-1.11-0.83-1.67-0.83c-0.56,0-0.97,0.42-1.25,1.25c-0.28,0.83-0.42,1.81-0.42,2.92
			c0,1.11,0,2.22,0,3.33c0,1.11,0,2.22,0,3.33c0,1.11,0,2.22,0,3.33c0,1.11,0,2.22,0,3.33c0,1.11,0,2.22,0,3.33
			c0,1.11,0.14,2.08,0.42,2.92c0.28,0.83,0.69,1.25,1.25,1.25c0.56,0,1.11-0.28,1.67-0.83C10.93,124.74,11.49,124.18,12.04,123.63z
			 M10.79,114.88c-0.28-0.83-0.28-1.67,0-2.5c0.28-0.83,0.69-1.25,1.25-1.25c0.56,0,0.97,0.42,1.25,1.25c0.28,0.83,0.28,1.67,0,2.5
			c-0.28,0.83-0.69,1.25-1.25,1.25C11.49,116.13,11.07,115.71,10.79,114.88z"/>
		<path class="st2" d="M18.71,156.96c0.56-0.56,0.97-1.25,1.25-2.08c0.28-0.83,0.28-1.67,0-2.5c-0.28-0.83-0.69-1.53-1.25-2.08
			c-0.56-0.56-1.11-1.11-1.67-1.67c-0.56-0.56-1.11-1.11-1.67-1.67c-0.56-0.56-1.11-1.11-1.67-1.67c-0.56-0.56-1.11-1.11-1.67-1.67
			c-0.56-0.56-1.11-1.11-1.67-1.67c-0.56-0.56-1.11-0.83-1.67-0.83c-0.56,0-0.97,0.42-1.25,1.25c-0.28,0.83-0.42,1.81-0.42,2.92
			c0,1.11,0,2.22,0,3.33c0,1.11,0,2.22,0,3.33c0,1.11,0,2.22,0,3.33c0,1.11,0,2.22,0,3.33c0,0.46,0,0.92,0,1.37h8.63
			c0.46-0.46,0.92-0.92,1.37-1.37C17.6,158.07,18.15,157.52,18.71,156.96z M10.79,154.88c-0.28-0.83-0.28-1.67,0-2.5
			c0.28-0.83,0.69-1.25,1.25-1.25c0.56,0,0.97,0.42,1.25,1.25c0.28,0.83,0.28,1.67,0,2.5c-0.28,0.83-0.69,1.25-1.25,1.25
			C11.49,156.13,11.07,155.71,10.79,154.88z"/>
	</g>
	<g>
		<path class="st0" d="M40.38,171.96c0-1.11,0-2.22,0-3.33c0-1.11,0-2.22,0-3.33c0-1.11-0.14-2.08-0.42-2.92
			c-0.28-0.83-0.69-1.25-1.25-1.25c-0.56,0-1.11,0.28-1.67,0.83c-0.56,0.56-1.11,1.11-1.67,1.67c-0.56,0.56-1.11,1.11-1.67,1.67
			c-0.56,0.56-1.11,1.11-1.67,1.67c-0.56,0.56-1.11,1.11-1.67,1.67c-0.56,0.56-1.11,1.11-1.67,1.67c-0.56,0.56-0.97,1.25-1.25,2.08
			c-0.28,0.83-0.28,1.67,0,2.5c0.28,0.83,0.69,1.53,1.25,2.08c0.56,0.56,1.11,1.11,1.67,1.67c0.56,0.56,1.11,1.11,1.67,1.67
			c0.56,0.56,1.11,1.11,1.67,1.67c0.56,0.56,1.11,1.11,1.67,1.67c0.56,0.56,1.11,1.11,1.67,1.67c0.56,0.56,1.11,0.83,1.67,0.83
			c0.56,0,0.97-0.42,1.25-1.25c0.28-0.83,0.42-1.81,0.42-2.92c0-1.11,0-2.22,0-3.33c0-1.11,0-2.22,0-3.33
			C40.38,174.18,40.38,173.07,40.38,171.96z M35.38,176.13c-0.56,0-0.97-0.42-1.25-1.25c-0.28-0.83-0.28-1.67,0-2.5
			c0.28-0.83,0.69-1.25,1.25-1.25c0.56,0,0.97,0.42,1.25,1.25c0.28,0.83,0.28,1.67,0,2.5C36.35,175.71,35.93,176.13,35.38,176.13z"
			/>
		<path class="st0" d="M35.38,203.63c-0.56,0.56-1.11,1.11-1.67,1.67c-0.56,0.56-1.11,1.11-1.67,1.67
			c-0.56,0.56-1.11,1.11-1.67,1.67c-0.56,0.56-1.11,1.11-1.67,1.67c-0.56,0.56-0.97,1.25-1.25,2.08c-0.28,0.83-0.28,1.67,0,2.5
			c0.28,0.83,0.69,1.53,1.25,2.08c0.56,0.56,1.11,1.11,1.67,1.67c0.56,0.56,1.11,1.11,1.67,1.67c0.56,0.56,1.11,1.11,1.67,1.67
			c0.56,0.56,1.11,1.11,1.67,1.67c0.56,0.56,1.11,1.11,1.67,1.67c0.56,0.56,1.11,0.83,1.67,0.83c0.56,0,0.97-0.42,1.25-1.25
			c0.28-0.83,0.42-1.81,0.42-2.92c0-1.11,0-2.22,0-3.33c0-1.11,0-2.22,0-3.33c0-1.11,0-2.22,0-3.33c0-1.11,0-2.22,0-3.33
			c0-1.11,0-2.22,0-3.33c0-1.11-0.14-2.08-0.42-2.92c-0.28-0.83-0.69-1.25-1.25-1.25c-0.56,0-1.11,0.28-1.67,0.83
			C36.49,202.52,35.93,203.07,35.38,203.63z M36.63,212.38c0.28,0.83,0.28,1.67,0,2.5c-0.28,0.83-0.69,1.25-1.25,1.25
			c-0.56,0-0.97-0.42-1.25-1.25c-0.28-0.83-0.28-1.67,0-2.5c0.28-0.83,0.69-1.25,1.25-1.25C35.93,211.13,36.35,211.54,36.63,212.38z
			"/>
		<path class="st1" d="M29.13,237.38c0.83-0.28,1.67-0.56,2.5-0.83c0.83-0.28,1.39-0.83,1.67-1.67c0.28-0.83,0.28-1.67,0-2.5
			c-0.28-0.83-0.83-1.39-1.67-1.67c-0.83-0.28-1.67-0.56-2.5-0.83c-0.83-0.28-1.39-0.83-1.67-1.67c-0.28-0.83-0.56-1.67-0.83-2.5
			c-0.28-0.83-0.69-1.53-1.25-2.08c-0.56-0.56-0.97-1.25-1.25-2.08c-0.28-0.83-0.56-1.67-0.83-2.5c-0.28-0.83-0.69-1.53-1.25-2.08
			c-0.56-0.56-0.97-1.25-1.25-2.08c-0.28-0.83-0.28-1.67,0-2.5c0.28-0.83,0.69-1.53,1.25-2.08c0.56-0.56,0.97-1.25,1.25-2.08
			c0.28-0.83,0.56-1.67,0.83-2.5c0.28-0.83,0.69-1.53,1.25-2.08c0.56-0.56,0.97-1.25,1.25-2.08c0.28-0.83,0.56-1.67,0.83-2.5
			c0.28-0.83,0.83-1.39,1.67-1.67c0.83-0.28,1.67-0.56,2.5-0.83c0.83-0.28,1.39-0.83,1.67-1.67c0.28-0.83,0.28-1.67,0-2.5
			c-0.28-0.83-0.83-1.39-1.67-1.67c-0.83-0.28-1.67-0.56-2.5-0.83c-0.83-0.28-1.39-0.83-1.67-1.67c-0.28-0.83-0.56-1.67-0.83-2.5
			c-0.28-0.83-0.69-1.53-1.25-2.08c-0.56-0.56-0.97-1.25-1.25-2.08c-0.28-0.83-0.56-1.67-0.83-2.5c-0.28-0.83-0.69-1.53-1.25-2.08
			c-0.56-0.56-0.97-1.25-1.25-2.08c-0.28-0.83-0.28-1.67,0-2.5c0.28-0.83,0.69-1.53,1.25-2.08c0.56-0.56,0.97-1.25,1.25-2.08
			c0.28-0.83,0.56-1.67,0.83-2.5c0.28-0.83,0.69-1.53,1.25-2.08c0.56-0.56,0.97-1.25,1.25-2.08c0.17-0.51,0.34-1.03,0.51-1.54h-3.33
			c-0.17,0.51-0.34,1.03-0.51,1.54c-0.28,0.83-0.69,1.53-1.25,2.08c-0.56,0.56-0.97,1.25-1.25,2.08c-0.28,0.83-0.56,1.67-0.83,2.5
			c-0.28,0.83-0.83,1.39-1.67,1.67c-0.83,0.28-1.67,0.56-2.5,0.83c-0.83,0.28-1.39,0.83-1.67,1.67c-0.28,0.83-0.28,1.67,0,2.5
			c0.28,0.83,0.83,1.39,1.67,1.67c0.83,0.28,1.67,0.56,2.5,0.83c0.83,0.28,1.39,0.83,1.67,1.67c0.28,0.83,0.56,1.67,0.83,2.5
			c0.28,0.83,0.69,1.53,1.25,2.08c0.56,0.56,0.97,1.25,1.25,2.08c0.28,0.83,0.56,1.67,0.83,2.5c0.28,0.83,0.69,1.53,1.25,2.08
			c0.56,0.56,0.97,1.25,1.25,2.08c0.28,0.83,0.28,1.67,0,2.5c-0.28,0.83-0.69,1.53-1.25,2.08c-0.56,0.56-0.97,1.25-1.25,2.08
			c-0.28,0.83-0.56,1.67-0.83,2.5c-0.28,0.83-0.69,1.53-1.25,2.08c-0.56,0.56-0.97,1.25-1.25,2.08c-0.28,0.83-0.56,1.67-0.83,2.5
			c-0.28,0.83-0.83,1.39-1.67,1.67c-0.83,0.28-1.67,0.56-2.5,0.83c-0.83,0.28-1.39,0.83-1.67,1.67c-0.28,0.83-0.28,1.67,0,2.5
			c0.28,0.83,0.83,1.39,1.67,1.67c0.83,0.28,1.67,0.56,2.5,0.83c0.83,0.28,1.39,0.83,1.67,1.67c0.28,0.83,0.56,1.67,0.83,2.5
			c0.28,0.83,0.69,1.53,1.25,2.08c0.56,0.56,0.97,1.25,1.25,2.08c0.28,0.83,0.56,1.67,0.83,2.5c0.28,0.83,0.69,1.53,1.25,2.08
			c0.56,0.56,0.97,1.25,1.25,2.08c0.28,0.83,0.28,1.67,0,2.5c-0.28,0.83-0.69,1.53-1.25,2.08c-0.56,0.56-0.97,1.25-1.25,2.08
			c-0.11,0.32-0.21,0.64-0.32,0.96h3.33c0.11-0.32,0.21-0.64,0.32-0.96C27.74,238.21,28.29,237.65,29.13,237.38z"/>
		<path class="st2" d="M7.46,164.88c0.28,0.83,0.69,1.25,1.25,1.25c0.56,0,1.11-0.28,1.67-0.83c0.56-0.56,1.11-1.11,1.67-1.67
			c0.56-0.56,1.11-1.11,1.67-1.67c0.56-0.56,1.11-1.11,1.67-1.67c0.1-0.1,0.2-0.2,0.29-0.29H7.04c0,0.65,0,1.31,0,1.96
			C7.04,163.07,7.18,164.04,7.46,164.88z"/>
		<path class="st3" d="M12.04,203.63c0.56-0.56,1.11-1.11,1.67-1.67c0.56-0.56,1.11-1.11,1.67-1.67c0.56-0.56,1.11-1.11,1.67-1.67
			c0.56-0.56,1.11-1.11,1.67-1.67c0.56-0.56,0.97-1.25,1.25-2.08c0.28-0.83,0.28-1.67,0-2.5c-0.28-0.83-0.69-1.53-1.25-2.08
			c-0.56-0.56-1.11-1.11-1.67-1.67c-0.56-0.56-1.11-1.11-1.67-1.67c-0.56-0.56-1.11-1.11-1.67-1.67c-0.56-0.56-1.11-1.11-1.67-1.67
			c-0.56-0.56-1.11-1.11-1.67-1.67c-0.56-0.56-1.11-0.83-1.67-0.83c-0.56,0-0.97,0.42-1.25,1.25c-0.28,0.83-0.42,1.81-0.42,2.92
			c0,1.11,0,2.22,0,3.33c0,1.11,0,2.22,0,3.33c0,1.11,0,2.22,0,3.33c0,1.11,0,2.22,0,3.33c0,1.11,0,2.22,0,3.33
			c0,1.11,0.14,2.08,0.42,2.92c0.28,0.83,0.69,1.25,1.25,1.25c0.56,0,1.11-0.28,1.67-0.83C10.93,204.74,11.49,204.18,12.04,203.63z
			 M10.79,194.88c-0.28-0.83-0.28-1.67,0-2.5c0.28-0.83,0.69-1.25,1.25-1.25c0.56,0,0.97,0.42,1.25,1.25c0.28,0.83,0.28,1.67,0,2.5
			c-0.28,0.83-0.69,1.25-1.25,1.25C11.49,196.13,11.07,195.71,10.79,194.88z"/>
		<path class="st2" d="M18.71,236.96c0.56-0.56,0.97-1.25,1.25-2.08c0.28-0.83,0.28-1.67,0-2.5c-0.28-0.83-0.69-1.53-1.25-2.08
			c-0.56-0.56-1.11-1.11-1.67-1.67c-0.56-0.56-1.11-1.11-1.67-1.67c-0.56-0.56-1.11-1.11-1.67-1.67c-0.56-0.56-1.11-1.11-1.67-1.67
			c-0.56-0.56-1.11-1.11-1.67-1.67c-0.56-0.56-1.11-0.83-1.67-0.83c-0.56,0-0.97,0.42-1.25,1.25c-0.28,0.83-0.42,1.81-0.42,2.92
			c0,1.11,0,2.22,0,3.33c0,1.11,0,2.22,0,3.33c0,1.11,0,2.22,0,3.33c0,1.11,0,2.22,0,3.33c0,0.46,0,0.92,0,1.37h8.63
			c0.46-0.46,0.92-0.92,1.37-1.37C17.6,238.07,18.15,237.52,18.71,236.96z M10.79,234.88c-0.28-0.83-0.28-1.67,0-2.5
			c0.28-0.83,0.69-1.25,1.25-1.25c0.56,0,0.97,0.42,1.25,1.25c0.28,0.83,0.28,1.67,0,2.5c-0.28,0.83-0.69,1.25-1.25,1.25
			C11.49,236.13,11.07,235.71,10.79,234.88z"/>
	</g>
	<g>
		<path class="st0" d="M40.38,251.96c0-1.11,0-2.22,0-3.33c0-1.11,0-2.22,0-3.33c0-1.11-0.14-2.08-0.42-2.92
			c-0.28-0.83-0.69-1.25-1.25-1.25c-0.56,0-1.11,0.28-1.67,0.83c-0.56,0.56-1.11,1.11-1.67,1.67c-0.56,0.56-1.11,1.11-1.67,1.67
			c-0.56,0.56-1.11,1.11-1.67,1.67c-0.56,0.56-1.11,1.11-1.67,1.67c-0.56,0.56-1.11,1.11-1.67,1.67c-0.56,0.56-0.97,1.25-1.25,2.08
			c-0.28,0.83-0.28,1.67,0,2.5c0.28,0.83,0.69,1.53,1.25,2.08c0.56,0.56,1.11,1.11,1.67,1.67c0.56,0.56,1.11,1.11,1.67,1.67
			c0.56,0.56,1.11,1.11,1.67,1.67c0.56,0.56,1.11,1.11,1.67,1.67c0.56,0.56,1.11,1.11,1.67,1.67c0.56,0.56,1.11,0.83,1.67,0.83
			c0.56,0,0.97-0.42,1.25-1.25c0.28-0.83,0.42-1.81,0.42-2.92c0-1.11,0-2.22,0-3.33c0-1.11,0-2.22,0-3.33
			C40.38,254.18,40.38,253.07,40.38,251.96z M35.38,256.13c-0.56,0-0.97-0.42-1.25-1.25c-0.28-0.83-0.28-1.67,0-2.5
			c0.28-0.83,0.69-1.25,1.25-1.25c0.56,0,0.97,0.42,1.25,1.25c0.28,0.83,0.28,1.67,0,2.5C36.35,255.71,35.93,256.13,35.38,256.13z"
			/>
		<path class="st0" d="M35.38,283.63c-0.56,0.56-1.11,1.11-1.67,1.67c-0.56,0.56-1.11,1.11-1.67,1.67
			c-0.56,0.56-1.11,1.11-1.67,1.67c-0.56,0.56-1.11,1.11-1.67,1.67c-0.56,0.56-0.97,1.25-1.25,2.08c-0.28,0.83-0.28,1.67,0,2.5
			c0.28,0.83,0.69,1.53,1.25,2.08c0.56,0.56,1.11,1.11,1.67,1.67c0.56,0.56,1.11,1.11,1.67,1.67c0.56,0.56,1.11,1.11,1.67,1.67
			c0.56,0.56,1.11,1.11,1.67,1.67c0.56,0.56,1.11,1.11,1.67,1.67c0.56,0.56,1.11,0.83,1.67,0.83c0.56,0,0.97-0.42,1.25-1.25
			c0.28-0.83,0.42-1.81,0.42-2.92c0-1.11,0-2.22,0-3.33c0-1.11,0-2.22,0-3.33c0-1.11,0-2.22,0-3.33c0-1.11,0-2.22,0-3.33
			c0-1.11,0-2.22,0-3.33c0-1.11-0.14-2.08-0.42-2.92c-0.28-0.83-0.69-1.25-1.25-1.25c-0.56,0-1.11,0.28-1.67,0.83
			C36.49,282.52,35.93,283.07,35.38,283.63z M36.63,292.38c0.28,0.83,0.28,1.67,0,2.5c-0.28,0.83-0.69,1.25-1.25,1.25
			c-0.56,0-0.97-0.42-1.25-1.25c-0.28-0.83-0.28-1.67,0-2.5c0.28-0.83,0.69-1.25,1.25-1.25C35.93,291.13,36.35,291.54,36.63,292.38z
			"/>
		<path class="st1" d="M29.13,317.38c0.83-0.28,1.67-0.56,2.5-0.83c0.83-0.28,1.39-0.83,1.67-1.67c0.28-0.83,0.28-1.67,0-2.5
			c-0.28-0.83-0.83-1.39-1.67-1.67c-0.83-0.28-1.67-0.56-2.5-0.83c-0.83-0.28-1.39-0.83-1.67-1.67c-0.28-0.83-0.56-1.67-0.83-2.5
			c-0.28-0.83-0.69-1.53-1.25-2.08c-0.56-0.56-0.97-1.25-1.25-2.08c-0.28-0.83-0.56-1.67-0.83-2.5c-0.28-0.83-0.69-1.53-1.25-2.08
			c-0.56-0.56-0.97-1.25-1.25-2.08c-0.28-0.83-0.28-1.67,0-2.5c0.28-0.83,0.69-1.53,1.25-2.08c0.56-0.56,0.97-1.25,1.25-2.08
			c0.28-0.83,0.56-1.67,0.83-2.5c0.28-0.83,0.69-1.53,1.25-2.08c0.56-0.56,0.97-1.25,1.25-2.08c0.28-0.83,0.56-1.67,0.83-2.5
			c0.28-0.83,0.83-1.39,1.67-1.67c0.83-0.28,1.67-0.56,2.5-0.83c0.83-0.28,1.39-0.83,1.67-1.67c0.28-0.83,0.28-1.67,0-2.5
			c-0.28-0.83-0.83-1.39-1.67-1.67c-0.83-0.28-1.67-0.56-2.5-0.83c-0.83-0.28-1.39-0.83-1.67-1.67c-0.28-0.83-0.56-1.67-0.83-2.5
			c-0.28-0.83-0.69-1.53-1.25-2.08c-0.56-0.56-0.97-1.25-1.25-2.08c-0.28-0.83-0.56-1.67-0.83-2.5c-0.28-0.83-0.69-1.53-1.25-2.08
			c-0.56-0.56-0.97-1.25-1.25-2.08c-0.28-0.83-0.28-1.67,0-2.5c0.28-0.83,0.69-1.53,1.25-2.08c0.56-0.56,0.97-1.25,1.25-2.08
			c0.28-0.83,0.56-1.67,0.83-2.5c0.28-0.83,0.69-1.53,1.25-2.08c0.56-0.56,0.97-1.25,1.25-2.08c0.17-0.51,0.34-1.03,0.51-1.54h-3.33
			c-0.17,0.51-0.34,1.03-0.51,1.54c-0.28,0.83-0.69,1.53-1.25,2.08c-0.56,0.56-0.97,1.25-1.25,2.08c-0.28,0.83-0.56,1.67-0.83,2.5
			c-0.28,0.83-0.83,1.39-1.67,1.67c-0.83,0.28-1.67,0.56-2.5,0.83c-0.83,0.28-1.39,0.83-1.67,1.67c-0.28,0.83-0.28,1.67,0,2.5
			c0.28,0.83,0.83,1.39,1.67,1.67c0.83,0.28,1.67,0.56,2.5,0.83c0.83,0.28,1.39,0.83,1.67,1.67c0.28,0.83,0.56,1.67,0.83,2.5
			c0.28,0.83,0.69,1.53,1.25,2.08c0.56,0.56,0.97,1.25,1.25,2.08c0.28,0.83,0.56,1.67,0.83,2.5c0.28,0.83,0.69,1.53,1.25,2.08
			c0.56,0.56,0.97,1.25,1.25,2.08c0.28,0.83,0.28,1.67,0,2.5c-0.28,0.83-0.69,1.53-1.25,2.08c-0.56,0.56-0.97,1.25-1.25,2.08
			c-0.28,0.83-0.56,1.67-0.83,2.5c-0.28,0.83-0.69,1.53-1.25,2.08c-0.56,0.56-0.97,1.25-1.25,2.08c-0.28,0.83-0.56,1.67-0.83,2.5
			c-0.28,0.83-0.83,1.39-1.67,1.67c-0.83,0.28-1.67,0.56-2.5,0.83c-0.83,0.28-1.39,0.83-1.67,1.67c-0.28,0.83-0.28,1.67,0,2.5
			c0.28,0.83,0.83,1.39,1.67,1.67c0.83,0.28,1.67,0.56,2.5,0.83c0.83,0.28,1.39,0.83,1.67,1.67c0.28,0.83,0.56,1.67,0.83,2.5
			c0.28,0.83,0.69,1.53,1.25,2.08c0.56,0.56,0.97,1.25,1.25,2.08c0.28,0.83,0.56,1.67,0.83,2.5c0.28,0.83,0.69,1.53,1.25,2.08
			c0.56,0.56,0.97,1.25,1.25,2.08c0.28,0.83,0.28,1.67,0,2.5c-0.28,0.83-0.69,1.53-1.25,2.08c-0.56,0.56-0.97,1.25-1.25,2.08
			c-0.11,0.32-0.21,0.64-0.32,0.96h3.33c0.11-0.32,0.21-0.64,0.32-0.96C27.74,318.21,28.29,317.65,29.13,317.38z"/>
		<path class="st2" d="M7.46,244.88c0.28,0.83,0.69,1.25,1.25,1.25c0.56,0,1.11-0.28,1.67-0.83c0.56-0.56,1.11-1.11,1.67-1.67
			c0.56-0.56,1.11-1.11,1.67-1.67c0.56-0.56,1.11-1.11,1.67-1.67c0.1-0.1,0.2-0.2,0.29-0.29H7.04c0,0.65,0,1.31,0,1.96
			C7.04,243.07,7.18,244.04,7.46,244.88z"/>
		<path class="st3" d="M12.04,283.63c0.56-0.56,1.11-1.11,1.67-1.67c0.56-0.56,1.11-1.11,1.67-1.67c0.56-0.56,1.11-1.11,1.67-1.67
			c0.56-0.56,1.11-1.11,1.67-1.67c0.56-0.56,0.97-1.25,1.25-2.08c0.28-0.83,0.28-1.67,0-2.5c-0.28-0.83-0.69-1.53-1.25-2.08
			c-0.56-0.56-1.11-1.11-1.67-1.67c-0.56-0.56-1.11-1.11-1.67-1.67c-0.56-0.56-1.11-1.11-1.67-1.67c-0.56-0.56-1.11-1.11-1.67-1.67
			c-0.56-0.56-1.11-1.11-1.67-1.67c-0.56-0.56-1.11-0.83-1.67-0.83c-0.56,0-0.97,0.42-1.25,1.25c-0.28,0.83-0.42,1.81-0.42,2.92
			c0,1.11,0,2.22,0,3.33c0,1.11,0,2.22,0,3.33c0,1.11,0,2.22,0,3.33c0,1.11,0,2.22,0,3.33c0,1.11,0,2.22,0,3.33
			c0,1.11,0.14,2.08,0.42,2.92c0.28,0.83,0.69,1.25,1.25,1.25c0.56,0,1.11-0.28,1.67-0.83C10.93,284.74,11.49,284.18,12.04,283.63z
			 M10.79,274.88c-0.28-0.83-0.28-1.67,0-2.5c0.28-0.83,0.69-1.25,1.25-1.25c0.56,0,0.97,0.42,1.25,1.25c0.28,0.83,0.28,1.67,0,2.5
			c-0.28,0.83-0.69,1.25-1.25,1.25C11.49,276.13,11.07,275.71,10.79,274.88z"/>
		<path class="st2" d="M18.71,316.96c0.56-0.56,0.97-1.25,1.25-2.08c0.28-0.83,0.28-1.67,0-2.5c-0.28-0.83-0.69-1.53-1.25-2.08
			c-0.56-0.56-1.11-1.11-1.67-1.67c-0.56-0.56-1.11-1.11-1.67-1.67c-0.56-0.56-1.11-1.11-1.67-1.67c-0.56-0.56-1.11-1.11-1.67-1.67
			c-0.56-0.56-1.11-1.11-1.67-1.67c-0.56-0.56-1.11-0.83-1.67-0.83c-0.56,0-0.97,0.42-1.25,1.25c-0.28,0.83-0.42,1.81-0.42,2.92
			c0,1.11,0,2.22,0,3.33c0,1.11,0,2.22,0,3.33c0,1.11,0,2.22,0,3.33c0,1.11,0,2.22,0,3.33c0,0.46,0,0.92,0,1.37h8.63
			c0.46-0.46,0.92-0.92,1.37-1.37C17.6,318.07,18.15,317.52,18.71,316.96z M10.79,314.88c-0.28-0.83-0.28-1.67,0-2.5
			c0.28-0.83,0.69-1.25,1.25-1.25c0.56,0,0.97,0.42,1.25,1.25c0.28,0.83,0.28,1.67,0,2.5c-0.28,0.83-0.69,1.25-1.25,1.25
			C11.49,316.13,11.07,315.71,10.79,314.88z"/>
	</g>
	<g>
		<path class="st0" d="M40.38,331.96c0-1.11,0-2.22,0-3.33c0-1.11,0-2.22,0-3.33c0-1.11-0.14-2.08-0.42-2.92
			c-0.28-0.83-0.69-1.25-1.25-1.25c-0.56,0-1.11,0.28-1.67,0.83c-0.56,0.56-1.11,1.11-1.67,1.67c-0.56,0.56-1.11,1.11-1.67,1.67
			c-0.56,0.56-1.11,1.11-1.67,1.67c-0.56,0.56-1.11,1.11-1.67,1.67c-0.56,0.56-1.11,1.11-1.67,1.67c-0.56,0.56-0.97,1.25-1.25,2.08
			c-0.28,0.83-0.28,1.67,0,2.5c0.28,0.83,0.69,1.53,1.25,2.08c0.56,0.56,1.11,1.11,1.67,1.67c0.56,0.56,1.11,1.11,1.67,1.67
			c0.56,0.56,1.11,1.11,1.67,1.67c0.56,0.56,1.11,1.11,1.67,1.67c0.56,0.56,1.11,1.11,1.67,1.67c0.56,0.56,1.11,0.83,1.67,0.83
			c0.56,0,0.97-0.42,1.25-1.25c0.28-0.83,0.42-1.81,0.42-2.92c0-1.11,0-2.22,0-3.33c0-1.11,0-2.22,0-3.33
			C40.38,334.18,40.38,333.07,40.38,331.96z M35.38,336.13c-0.56,0-0.97-0.42-1.25-1.25c-0.28-0.83-0.28-1.67,0-2.5
			c0.28-0.83,0.69-1.25,1.25-1.25c0.56,0,0.97,0.42,1.25,1.25c0.28,0.83,0.28,1.67,0,2.5C36.35,335.71,35.93,336.13,35.38,336.13z"
			/>
		<path class="st0" d="M35.38,363.63c-0.56,0.56-1.11,1.11-1.67,1.67c-0.56,0.56-1.11,1.11-1.67,1.67
			c-0.56,0.56-1.11,1.11-1.67,1.67c-0.56,0.56-1.11,1.11-1.67,1.67c-0.56,0.56-0.97,1.25-1.25,2.08c-0.28,0.83-0.28,1.67,0,2.5
			c0.28,0.83,0.69,1.53,1.25,2.08c0.56,0.56,1.11,1.11,1.67,1.67c0.56,0.56,1.11,1.11,1.67,1.67c0.56,0.56,1.11,1.11,1.67,1.67
			c0.56,0.56,1.11,1.11,1.67,1.67c0.56,0.56,1.11,1.11,1.67,1.67c0.56,0.56,1.11,0.83,1.67,0.83c0.56,0,0.97-0.42,1.25-1.25
			c0.28-0.83,0.42-1.81,0.42-2.92c0-1.11,0-2.22,0-3.33c0-1.11,0-2.22,0-3.33c0-1.11,0-2.22,0-3.33c0-1.11,0-2.22,0-3.33
			c0-1.11,0-2.22,0-3.33c0-1.11-0.14-2.08-0.42-2.92c-0.28-0.83-0.69-1.25-1.25-1.25c-0.56,0-1.11,0.28-1.67,0.83
			C36.49,362.52,35.93,363.07,35.38,363.63z M36.63,372.38c0.28,0.83,0.28,1.67,0,2.5c-0.28,0.83-0.69,1.25-1.25,1.25
			c-0.56,0-0.97-0.42-1.25-1.25c-0.28-0.83-0.28-1.67,0-2.5c0.28-0.83,0.69-1.25,1.25-1.25C35.93,371.13,36.35,371.54,36.63,372.38z
			"/>
		<path class="st1" d="M29.13,397.38c0.83-0.28,1.67-0.56,2.5-0.83c0.83-0.28,1.39-0.83,1.67-1.67c0.28-0.83,0.28-1.67,0-2.5
			c-0.28-0.83-0.83-1.39-1.67-1.67c-0.83-0.28-1.67-0.56-2.5-0.83c-0.83-0.28-1.39-0.83-1.67-1.67c-0.28-0.83-0.56-1.67-0.83-2.5
			c-0.28-0.83-0.69-1.53-1.25-2.08c-0.56-0.56-0.97-1.25-1.25-2.08c-0.28-0.83-0.56-1.67-0.83-2.5c-0.28-0.83-0.69-1.53-1.25-2.08
			c-0.56-0.56-0.97-1.25-1.25-2.08c-0.28-0.83-0.28-1.67,0-2.5c0.28-0.83,0.69-1.53,1.25-2.08c0.56-0.56,0.97-1.25,1.25-2.08
			c0.28-0.83,0.56-1.67,0.83-2.5c0.28-0.83,0.69-1.53,1.25-2.08c0.56-0.56,0.97-1.25,1.25-2.08c0.28-0.83,0.56-1.67,0.83-2.5
			c0.28-0.83,0.83-1.39,1.67-1.67c0.83-0.28,1.67-0.56,2.5-0.83c0.83-0.28,1.39-0.83,1.67-1.67c0.28-0.83,0.28-1.67,0-2.5
			c-0.28-0.83-0.83-1.39-1.67-1.67c-0.83-0.28-1.67-0.56-2.5-0.83c-0.83-0.28-1.39-0.83-1.67-1.67c-0.28-0.83-0.56-1.67-0.83-2.5
			c-0.28-0.83-0.69-1.53-1.25-2.08c-0.56-0.56-0.97-1.25-1.25-2.08c-0.28-0.83-0.56-1.67-0.83-2.5c-0.28-0.83-0.69-1.53-1.25-2.08
			c-0.56-0.56-0.97-1.25-1.25-2.08c-0.28-0.83-0.28-1.67,0-2.5c0.28-0.83,0.69-1.53,1.25-2.08c0.56-0.56,0.97-1.25,1.25-2.08
			c0.28-0.83,0.56-1.67,0.83-2.5c0.28-0.83,0.69-1.53,1.25-2.08c0.56-0.56,0.97-1.25,1.25-2.08c0.17-0.51,0.34-1.03,0.51-1.54h-3.33
			c-0.17,0.51-0.34,1.03-0.51,1.54c-0.28,0.83-0.69,1.53-1.25,2.08c-0.56,0.56-0.97,1.25-1.25,2.08c-0.28,0.83-0.56,1.67-0.83,2.5
			c-0.28,0.83-0.83,1.39-1.67,1.67c-0.83,0.28-1.67,0.56-2.5,0.83c-0.83,0.28-1.39,0.83-1.67,1.67c-0.28,0.83-0.28,1.67,0,2.5
			c0.28,0.83,0.83,1.39,1.67,1.67c0.83,0.28,1.67,0.56,2.5,0.83c0.83,0.28,1.39,0.83,1.67,1.67c0.28,0.83,0.56,1.67,0.83,2.5
			c0.28,0.83,0.69,1.53,1.25,2.08c0.56,0.56,0.97,1.25,1.25,2.08c0.28,0.83,0.56,1.67,0.83,2.5c0.28,0.83,0.69,1.53,1.25,2.08
			c0.56,0.56,0.97,1.25,1.25,2.08c0.28,0.83,0.28,1.67,0,2.5c-0.28,0.83-0.69,1.53-1.25,2.08c-0.56,0.56-0.97,1.25-1.25,2.08
			c-0.28,0.83-0.56,1.67-0.83,2.5c-0.28,0.83-0.69,1.53-1.25,2.08c-0.56,0.56-0.97,1.25-1.25,2.08c-0.28,0.83-0.56,1.67-0.83,2.5
			c-0.28,0.83-0.83,1.39-1.67,1.67c-0.83,0.28-1.67,0.56-2.5,0.83c-0.83,0.28-1.39,0.83-1.67,1.67c-0.28,0.83-0.28,1.67,0,2.5
			c0.28,0.83,0.83,1.39,1.67,1.67c0.83,0.28,1.67,0.56,2.5,0.83c0.83,0.28,1.39,0.83,1.67,1.67c0.28,0.83,0.56,1.67,0.83,2.5
			c0.28,0.83,0.69,1.53,1.25,2.08c0.56,0.56,0.97,1.25,1.25,2.08c0.28,0.83,0.56,1.67,0.83,2.5c0.28,0.83,0.69,1.53,1.25,2.08
			c0.56,0.56,0.97,1.25,1.25,2.08c0.28,0.83,0.28,1.67,0,2.5c-0.28,0.83-0.69,1.53-1.25,2.08c-0.56,0.56-0.97,1.25-1.25,2.08
			c-0.11,0.32-0.21,0.64-0.32,0.96h3.33c0.11-0.32,0.21-0.64,0.32-0.96C27.74,398.21,28.29,397.65,29.13,397.38z"/>
		<path class="st2" d="M7.46,324.88c0.28,0.83,0.69,1.25,1.25,1.25c0.56,0,1.11-0.28,1.67-0.83c0.56-0.56,1.11-1.11,1.67-1.67
			c0.56-0.56,1.11-1.11,1.67-1.67c0.56-0.56,1.11-1.11,1.67-1.67c0.1-0.1,0.2-0.2,0.29-0.29H7.04c0,0.65,0,1.31,0,1.96
			C7.04,323.07,7.18,324.04,7.46,324.88z"/>
		<path class="st3" d="M12.04,363.63c0.56-0.56,1.11-1.11,1.67-1.67c0.56-0.56,1.11-1.11,1.67-1.67c0.56-0.56,1.11-1.11,1.67-1.67
			c0.56-0.56,1.11-1.11,1.67-1.67c0.56-0.56,0.97-1.25,1.25-2.08c0.28-0.83,0.28-1.67,0-2.5c-0.28-0.83-0.69-1.53-1.25-2.08
			c-0.56-0.56-1.11-1.11-1.67-1.67c-0.56-0.56-1.11-1.11-1.67-1.67c-0.56-0.56-1.11-1.11-1.67-1.67c-0.56-0.56-1.11-1.11-1.67-1.67
			c-0.56-0.56-1.11-1.11-1.67-1.67c-0.56-0.56-1.11-0.83-1.67-0.83c-0.56,0-0.97,0.42-1.25,1.25c-0.28,0.83-0.42,1.81-0.42,2.92
			c0,1.11,0,2.22,0,3.33c0,1.11,0,2.22,0,3.33c0,1.11,0,2.22,0,3.33c0,1.11,0,2.22,0,3.33c0,1.11,0,2.22,0,3.33
			c0,1.11,0.14,2.08,0.42,2.92c0.28,0.83,0.69,1.25,1.25,1.25c0.56,0,1.11-0.28,1.67-0.83C10.93,364.74,11.49,364.18,12.04,363.63z
			 M10.79,354.88c-0.28-0.83-0.28-1.67,0-2.5c0.28-0.83,0.69-1.25,1.25-1.25c0.56,0,0.97,0.42,1.25,1.25c0.28,0.83,0.28,1.67,0,2.5
			c-0.28,0.83-0.69,1.25-1.25,1.25C11.49,356.13,11.07,355.71,10.79,354.88z"/>
		<path class="st2" d="M18.71,396.96c0.56-0.56,0.97-1.25,1.25-2.08c0.28-0.83,0.28-1.67,0-2.5c-0.28-0.83-0.69-1.53-1.25-2.08
			c-0.56-0.56-1.11-1.11-1.67-1.67c-0.56-0.56-1.11-1.11-1.67-1.67c-0.56-0.56-1.11-1.11-1.67-1.67c-0.56-0.56-1.11-1.11-1.67-1.67
			c-0.56-0.56-1.11-1.11-1.67-1.67c-0.56-0.56-1.11-0.83-1.67-0.83c-0.56,0-0.97,0.42-1.25,1.25c-0.28,0.83-0.42,1.81-0.42,2.92
			c0,1.11,0,2.22,0,3.33c0,1.11,0,2.22,0,3.33c0,1.11,0,2.22,0,3.33c0,1.11,0,2.22,0,3.33c0,0.46,0,0.92,0,1.37h8.63
			c0.46-0.46,0.92-0.92,1.37-1.37C17.6,398.07,18.15,397.52,18.71,396.96z M10.79,394.88c-0.28-0.83-0.28-1.67,0-2.5
			c0.28-0.83,0.69-1.25,1.25-1.25c0.56,0,0.97,0.42,1.25,1.25c0.28,0.83,0.28,1.67,0,2.5c-0.28,0.83-0.69,1.25-1.25,1.25
			C11.49,396.13,11.07,395.71,10.79,394.88z"/>
	</g>
	<g>
		<path class="st0" d="M40.38,411.96c0-1.11,0-2.22,0-3.33c0-1.11,0-2.22,0-3.33c0-1.11-0.14-2.08-0.42-2.92
			c-0.28-0.83-0.69-1.25-1.25-1.25c-0.56,0-1.11,0.28-1.67,0.83c-0.56,0.56-1.11,1.11-1.67,1.67c-0.56,0.56-1.11,1.11-1.67,1.67
			c-0.56,0.56-1.11,1.11-1.67,1.67c-0.56,0.56-1.11,1.11-1.67,1.67c-0.56,0.56-1.11,1.11-1.67,1.67c-0.56,0.56-0.97,1.25-1.25,2.08
			c-0.28,0.83-0.28,1.67,0,2.5c0.28,0.83,0.69,1.53,1.25,2.08c0.56,0.56,1.11,1.11,1.67,1.67c0.56,0.56,1.11,1.11,1.67,1.67
			c0.56,0.56,1.11,1.11,1.67,1.67c0.56,0.56,1.11,1.11,1.67,1.67c0.56,0.56,1.11,1.11,1.67,1.67c0.56,0.56,1.11,0.83,1.67,0.83
			c0.56,0,0.97-0.42,1.25-1.25c0.28-0.83,0.42-1.81,0.42-2.92c0-1.11,0-2.22,0-3.33c0-1.11,0-2.22,0-3.33
			C40.38,414.18,40.38,413.07,40.38,411.96z M35.38,416.13c-0.56,0-0.97-0.42-1.25-1.25c-0.28-0.83-0.28-1.67,0-2.5
			c0.28-0.83,0.69-1.25,1.25-1.25c0.56,0,0.97,0.42,1.25,1.25c0.28,0.83,0.28,1.67,0,2.5C36.35,415.71,35.93,416.13,35.38,416.13z"
			/>
		<path class="st0" d="M35.38,443.63c-0.56,0.56-1.11,1.11-1.67,1.67c-0.56,0.56-1.11,1.11-1.67,1.67
			c-0.56,0.56-1.11,1.11-1.67,1.67c-0.56,0.56-1.11,1.11-1.67,1.67c-0.56,0.56-0.97,1.25-1.25,2.08c-0.28,0.83-0.28,1.67,0,2.5
			c0.28,0.83,0.69,1.53,1.25,2.08c0.56,0.56,1.11,1.11,1.67,1.67c0.56,0.56,1.11,1.11,1.67,1.67c0.56,0.56,1.11,1.11,1.67,1.67
			c0.56,0.56,1.11,1.11,1.67,1.67c0.56,0.56,1.11,1.11,1.67,1.67c0.56,0.56,1.11,0.83,1.67,0.83c0.56,0,0.97-0.42,1.25-1.25
			c0.28-0.83,0.42-1.81,0.42-2.92c0-1.11,0-2.22,0-3.33c0-1.11,0-2.22,0-3.33c0-1.11,0-2.22,0-3.33c0-1.11,0-2.22,0-3.33
			c0-1.11,0-2.22,0-3.33c0-1.11-0.14-2.08-0.42-2.92c-0.28-0.83-0.69-1.25-1.25-1.25c-0.56,0-1.11,0.28-1.67,0.83
			C36.49,442.52,35.93,443.07,35.38,443.63z M36.63,452.38c0.28,0.83,0.28,1.67,0,2.5c-0.28,0.83-0.69,1.25-1.25,1.25
			c-0.56,0-0.97-0.42-1.25-1.25c-0.28-0.83-0.28-1.67,0-2.5c0.28-0.83,0.69-1.25,1.25-1.25C35.93,451.13,36.35,451.54,36.63,452.38z
			"/>
		<path class="st1" d="M29.13,477.38c0.83-0.28,1.67-0.56,2.5-0.83c0.83-0.28,1.39-0.83,1.67-1.67c0.28-0.83,0.28-1.67,0-2.5
			c-0.28-0.83-0.83-1.39-1.67-1.67c-0.83-0.28-1.67-0.56-2.5-0.83c-0.83-0.28-1.39-0.83-1.67-1.67c-0.28-0.83-0.56-1.67-0.83-2.5
			c-0.28-0.83-0.69-1.53-1.25-2.08c-0.56-0.56-0.97-1.25-1.25-2.08c-0.28-0.83-0.56-1.67-0.83-2.5c-0.28-0.83-0.69-1.53-1.25-2.08
			c-0.56-0.56-0.97-1.25-1.25-2.08c-0.28-0.83-0.28-1.67,0-2.5c0.28-0.83,0.69-1.53,1.25-2.08c0.56-0.56,0.97-1.25,1.25-2.08
			c0.28-0.83,0.56-1.67,0.83-2.5c0.28-0.83,0.69-1.53,1.25-2.08c0.56-0.56,0.97-1.25,1.25-2.08c0.28-0.83,0.56-1.67,0.83-2.5
			c0.28-0.83,0.83-1.39,1.67-1.67c0.83-0.28,1.67-0.56,2.5-0.83c0.83-0.28,1.39-0.83,1.67-1.67c0.28-0.83,0.28-1.67,0-2.5
			c-0.28-0.83-0.83-1.39-1.67-1.67c-0.83-0.28-1.67-0.56-2.5-0.83c-0.83-0.28-1.39-0.83-1.67-1.67c-0.28-0.83-0.56-1.67-0.83-2.5
			c-0.28-0.83-0.69-1.53-1.25-2.08c-0.56-0.56-0.97-1.25-1.25-2.08c-0.28-0.83-0.56-1.67-0.83-2.5c-0.28-0.83-0.69-1.53-1.25-2.08
			c-0.56-0.56-0.97-1.25-1.25-2.08c-0.28-0.83-0.28-1.67,0-2.5c0.28-0.83,0.69-1.53,1.25-2.08c0.56-0.56,0.97-1.25,1.25-2.08
			c0.28-0.83,0.56-1.67,0.83-2.5c0.28-0.83,0.69-1.53,1.25-2.08c0.56-0.56,0.97-1.25,1.25-2.08c0.17-0.51,0.34-1.03,0.51-1.54h-3.33
			c-0.17,0.51-0.34,1.03-0.51,1.54c-0.28,0.83-0.69,1.53-1.25,2.08c-0.56,0.56-0.97,1.25-1.25,2.08c-0.28,0.83-0.56,1.67-0.83,2.5
			c-0.28,0.83-0.83,1.39-1.67,1.67c-0.83,0.28-1.67,0.56-2.5,0.83c-0.83,0.28-1.39,0.83-1.67,1.67c-0.28,0.83-0.28,1.67,0,2.5
			c0.28,0.83,0.83,1.39,1.67,1.67c0.83,0.28,1.67,0.56,2.5,0.83c0.83,0.28,1.39,0.83,1.67,1.67c0.28,0.83,0.56,1.67,0.83,2.5
			c0.28,0.83,0.69,1.53,1.25,2.08c0.56,0.56,0.97,1.25,1.25,2.08c0.28,0.83,0.56,1.67,0.83,2.5c0.28,0.83,0.69,1.53,1.25,2.08
			c0.56,0.56,0.97,1.25,1.25,2.08c0.28,0.83,0.28,1.67,0,2.5c-0.28,0.83-0.69,1.53-1.25,2.08c-0.56,0.56-0.97,1.25-1.25,2.08
			c-0.28,0.83-0.56,1.67-0.83,2.5c-0.28,0.83-0.69,1.53-1.25,2.08c-0.56,0.56-0.97,1.25-1.25,2.08c-0.28,0.83-0.56,1.67-0.83,2.5
			c-0.28,0.83-0.83,1.39-1.67,1.67c-0.83,0.28-1.67,0.56-2.5,0.83c-0.83,0.28-1.39,0.83-1.67,1.67c-0.28,0.83-0.28,1.67,0,2.5
			c0.28,0.83,0.83,1.39,1.67,1.67c0.83,0.28,1.67,0.56,2.5,0.83c0.83,0.28,1.39,0.83,1.67,1.67c0.28,0.83,0.56,1.67,0.83,2.5
			c0.28,0.83,0.69,1.53,1.25,2.08c0.56,0.56,0.97,1.25,1.25,2.08c0.28,0.83,0.56,1.67,0.83,2.5c0.28,0.83,0.69,1.53,1.25,2.08
			c0.56,0.56,0.97,1.25,1.25,2.08c0.28,0.83,0.28,1.67,0,2.5c-0.28,0.83-0.69,1.53-1.25,2.08c-0.56,0.56-0.97,1.25-1.25,2.08
			c-0.11,0.32-0.21,0.64-0.32,0.96h3.33c0.11-0.32,0.21-0.64,0.32-0.96C27.74,478.21,28.29,477.65,29.13,477.38z"/>
		<path class="st2" d="M7.46,404.88c0.28,0.83,0.69,1.25,1.25,1.25c0.56,0,1.11-0.28,1.67-0.83c0.56-0.56,1.11-1.11,1.67-1.67
			c0.56-0.56,1.11-1.11,1.67-1.67c0.56-0.56,1.11-1.11,1.67-1.67c0.1-0.1,0.2-0.2,0.29-0.29H7.04c0,0.65,0,1.31,0,1.96
			C7.04,403.07,7.18,404.04,7.46,404.88z"/>
		<path class="st3" d="M12.04,443.63c0.56-0.56,1.11-1.11,1.67-1.67c0.56-0.56,1.11-1.11,1.67-1.67c0.56-0.56,1.11-1.11,1.67-1.67
			c0.56-0.56,1.11-1.11,1.67-1.67c0.56-0.56,0.97-1.25,1.25-2.08c0.28-0.83,0.28-1.67,0-2.5c-0.28-0.83-0.69-1.53-1.25-2.08
			c-0.56-0.56-1.11-1.11-1.67-1.67c-0.56-0.56-1.11-1.11-1.67-1.67c-0.56-0.56-1.11-1.11-1.67-1.67c-0.56-0.56-1.11-1.11-1.67-1.67
			c-0.56-0.56-1.11-1.11-1.67-1.67c-0.56-0.56-1.11-0.83-1.67-0.83c-0.56,0-0.97,0.42-1.25,1.25c-0.28,0.83-0.42,1.81-0.42,2.92
			c0,1.11,0,2.22,0,3.33c0,1.11,0,2.22,0,3.33c0,1.11,0,2.22,0,3.33c0,1.11,0,2.22,0,3.33c0,1.11,0,2.22,0,3.33
			c0,1.11,0.14,2.08,0.42,2.92c0.28,0.83,0.69,1.25,1.25,1.25c0.56,0,1.11-0.28,1.67-0.83C10.93,444.74,11.49,444.18,12.04,443.63z
			 M10.79,434.88c-0.28-0.83-0.28-1.67,0-2.5c0.28-0.83,0.69-1.25,1.25-1.25c0.56,0,0.97,0.42,1.25,1.25c0.28,0.83,0.28,1.67,0,2.5
			c-0.28,0.83-0.69,1.25-1.25,1.25C11.49,436.13,11.07,435.71,10.79,434.88z"/>
		<path class="st2" d="M18.71,476.96c0.56-0.56,0.97-1.25,1.25-2.08c0.28-0.83,0.28-1.67,0-2.5c-0.28-0.83-0.69-1.53-1.25-2.08
			c-0.56-0.56-1.11-1.11-1.67-1.67c-0.56-0.56-1.11-1.11-1.67-1.67c-0.56-0.56-1.11-1.11-1.67-1.67c-0.56-0.56-1.11-1.11-1.67-1.67
			c-0.56-0.56-1.11-1.11-1.67-1.67c-0.56-0.56-1.11-0.83-1.67-0.83c-0.56,0-0.97,0.42-1.25,1.25c-0.28,0.83-0.42,1.81-0.42,2.92
			c0,1.11,0,2.22,0,3.33c0,1.11,0,2.22,0,3.33c0,1.11,0,2.22,0,3.33c0,1.11,0,2.22,0,3.33c0,0.46,0,0.92,0,1.37h8.63
			c0.46-0.46,0.92-0.92,1.37-1.37C17.6,478.07,18.15,477.52,18.71,476.96z M10.79,474.88c-0.28-0.83-0.28-1.67,0-2.5
			c0.28-0.83,0.69-1.25,1.25-1.25c0.56,0,0.97,0.42,1.25,1.25c0.28,0.83,0.28,1.67,0,2.5c-0.28,0.83-0.69,1.25-1.25,1.25
			C11.49,476.13,11.07,475.71,10.79,474.88z"/>
	</g>
	<g>
		<path class="st0" d="M40.38,491.96c0-1.11,0-2.22,0-3.33c0-1.11,0-2.22,0-3.33c0-1.11-0.14-2.08-0.42-2.92
			c-0.28-0.83-0.69-1.25-1.25-1.25c-0.56,0-1.11,0.28-1.67,0.83c-0.56,0.56-1.11,1.11-1.67,1.67c-0.56,0.56-1.11,1.11-1.67,1.67
			c-0.56,0.56-1.11,1.11-1.67,1.67c-0.56,0.56-1.11,1.11-1.67,1.67c-0.56,0.56-1.11,1.11-1.67,1.67c-0.56,0.56-0.97,1.25-1.25,2.08
			c-0.28,0.83-0.28,1.67,0,2.5c0.28,0.83,0.69,1.53,1.25,2.08c0.56,0.56,1.11,1.11,1.67,1.67c0.56,0.56,1.11,1.11,1.67,1.67
			c0.56,0.56,1.11,1.11,1.67,1.67c0.56,0.56,1.11,1.11,1.67,1.67c0.56,0.56,1.11,1.11,1.67,1.67c0.56,0.56,1.11,0.83,1.67,0.83
			c0.56,0,0.97-0.42,1.25-1.25c0.28-0.83,0.42-1.81,0.42-2.92c0-1.11,0-2.22,0-3.33c0-1.11,0-2.22,0-3.33
			C40.38,494.18,40.38,493.07,40.38,491.96z M35.38,496.13c-0.56,0-0.97-0.42-1.25-1.25c-0.28-0.83-0.28-1.67,0-2.5
			c0.28-0.83,0.69-1.25,1.25-1.25c0.56,0,0.97,0.42,1.25,1.25c0.28,0.83,0.28,1.67,0,2.5C36.35,495.71,35.93,496.13,35.38,496.13z"
			/>
		<path class="st0" d="M35.38,523.63c-0.56,0.56-1.11,1.11-1.67,1.67c-0.56,0.56-1.11,1.11-1.67,1.67
			c-0.56,0.56-1.11,1.11-1.67,1.67c-0.56,0.56-1.11,1.11-1.67,1.67c-0.56,0.56-0.97,1.25-1.25,2.08c-0.28,0.83-0.28,1.67,0,2.5
			c0.28,0.83,0.69,1.53,1.25,2.08c0.56,0.56,1.11,1.11,1.67,1.67c0.56,0.56,1.11,1.11,1.67,1.67c0.56,0.56,1.11,1.11,1.67,1.67
			c0.56,0.56,1.11,1.11,1.67,1.67c0.56,0.56,1.11,1.11,1.67,1.67c0.56,0.56,1.11,0.83,1.67,0.83c0.56,0,0.97-0.42,1.25-1.25
			c0.28-0.83,0.42-1.81,0.42-2.92c0-1.11,0-2.22,0-3.33c0-1.11,0-2.22,0-3.33c0-1.11,0-2.22,0-3.33c0-1.11,0-2.22,0-3.33
			c0-1.11,0-2.22,0-3.33c0-1.11-0.14-2.08-0.42-2.92c-0.28-0.83-0.69-1.25-1.25-1.25c-0.56,0-1.11,0.28-1.67,0.83
			C36.49,522.52,35.93,523.07,35.38,523.63z M36.63,532.38c0.28,0.83,0.28,1.67,0,2.5c-0.28,0.83-0.69,1.25-1.25,1.25
			c-0.56,0-0.97-0.42-1.25-1.25c-0.28-0.83-0.28-1.67,0-2.5c0.28-0.83,0.69-1.25,1.25-1.25C35.93,531.13,36.35,531.54,36.63,532.38z
			"/>
		<path class="st1" d="M29.13,557.38c0.83-0.28,1.67-0.56,2.5-0.83c0.83-0.28,1.39-0.83,1.67-1.67c0.28-0.83,0.28-1.67,0-2.5
			c-0.28-0.83-0.83-1.39-1.67-1.67c-0.83-0.28-1.67-0.56-2.5-0.83c-0.83-0.28-1.39-0.83-1.67-1.67c-0.28-0.83-0.56-1.67-0.83-2.5
			c-0.28-0.83-0.69-1.53-1.25-2.08c-0.56-0.56-0.97-1.25-1.25-2.08c-0.28-0.83-0.56-1.67-0.83-2.5c-0.28-0.83-0.69-1.53-1.25-2.08
			c-0.56-0.56-0.97-1.25-1.25-2.08c-0.28-0.83-0.28-1.67,0-2.5c0.28-0.83,0.69-1.53,1.25-2.08c0.56-0.56,0.97-1.25,1.25-2.08
			c0.28-0.83,0.56-1.67,0.83-2.5c0.28-0.83,0.69-1.53,1.25-2.08c0.56-0.56,0.97-1.25,1.25-2.08c0.28-0.83,0.56-1.67,0.83-2.5
			c0.28-0.83,0.83-1.39,1.67-1.67c0.83-0.28,1.67-0.56,2.5-0.83c0.83-0.28,1.39-0.83,1.67-1.67c0.28-0.83,0.28-1.67,0-2.5
			c-0.28-0.83-0.83-1.39-1.67-1.67c-0.83-0.28-1.67-0.56-2.5-0.83c-0.83-0.28-1.39-0.83-1.67-1.67c-0.28-0.83-0.56-1.67-0.83-2.5
			c-0.28-0.83-0.69-1.53-1.25-2.08c-0.56-0.56-0.97-1.25-1.25-2.08c-0.28-0.83-0.56-1.67-0.83-2.5c-0.28-0.83-0.69-1.53-1.25-2.08
			c-0.56-0.56-0.97-1.25-1.25-2.08c-0.28-0.83-0.28-1.67,0-2.5c0.28-0.83,0.69-1.53,1.25-2.08c0.56-0.56,0.97-1.25,1.25-2.08
			c0.28-0.83,0.56-1.67,0.83-2.5c0.28-0.83,0.69-1.53,1.25-2.08c0.56-0.56,0.97-1.25,1.25-2.08c0.17-0.51,0.34-1.03,0.51-1.54h-3.33
			c-0.17,0.51-0.34,1.03-0.51,1.54c-0.28,0.83-0.69,1.53-1.25,2.08c-0.56,0.56-0.97,1.25-1.25,2.08c-0.28,0.83-0.56,1.67-0.83,2.5
			c-0.28,0.83-0.83,1.39-1.67,1.67c-0.83,0.28-1.67,0.56-2.5,0.83c-0.83,0.28-1.39,0.83-1.67,1.67c-0.28,0.83-0.28,1.67,0,2.5
			c0.28,0.83,0.83,1.39,1.67,1.67c0.83,0.28,1.67,0.56,2.5,0.83c0.83,0.28,1.39,0.83,1.67,1.67c0.28,0.83,0.56,1.67,0.83,2.5
			c0.28,0.83,0.69,1.53,1.25,2.08c0.56,0.56,0.97,1.25,1.25,2.08c0.28,0.83,0.56,1.67,0.83,2.5c0.28,0.83,0.69,1.53,1.25,2.08
			c0.56,0.56,0.97,1.25,1.25,2.08c0.28,0.83,0.28,1.67,0,2.5c-0.28,0.83-0.69,1.53-1.25,2.08c-0.56,0.56-0.97,1.25-1.25,2.08
			c-0.28,0.83-0.56,1.67-0.83,2.5c-0.28,0.83-0.69,1.53-1.25,2.08c-0.56,0.56-0.97,1.25-1.25,2.08c-0.28,0.83-0.56,1.67-0.83,2.5
			c-0.28,0.83-0.83,1.39-1.67,1.67c-0.83,0.28-1.67,0.56-2.5,0.83c-0.83,0.28-1.39,0.83-1.67,1.67c-0.28,0.83-0.28,1.67,0,2.5
			c0.28,0.83,0.83,1.39,1.67,1.67c0.83,0.28,1.67,0.56,2.5,0.83c0.83,0.28,1.39,0.83,1.67,1.67c0.28,0.83,0.56,1.67,0.83,2.5
			c0.28,0.83,0.69,1.53,1.25,2.08c0.56,0.56,0.97,1.25,1.25,2.08c0.28,0.83,0.56,1.67,0.83,2.5c0.28,0.83,0.69,1.53,1.25,2.08
			c0.56,0.56,0.97,1.25,1.25,2.08c0.28,0.83,0.28,1.67,0,2.5c-0.28,0.83-0.69,1.53-1.25,2.08c-0.56,0.56-0.97,1.25-1.25,2.08
			c-0.11,0.32-0.21,0.64-0.32,0.96h3.33c0.11-0.32,0.21-0.64,0.32-0.96C27.74,558.21,28.29,557.65,29.13,557.38z"/>
		<path class="st2" d="M7.46,484.88c0.28,0.83,0.69,1.25,1.25,1.25c0.56,0,1.11-0.28,1.67-0.83c0.56-0.56,1.11-1.11,1.67-1.67
			c0.56-0.56,1.11-1.11,1.67-1.67c0.56-0.56,1.11-1.11,1.67-1.67c0.1-0.1,0.2-0.2,0.29-0.29H7.04c0,0.65,0,1.31,0,1.96
			C7.04,483.07,7.18,484.04,7.46,484.88z"/>
		<path class="st3" d="M12.04,523.63c0.56-0.56,1.11-1.11,1.67-1.67c0.56-0.56,1.11-1.11,1.67-1.67c0.56-0.56,1.11-1.11,1.67-1.67
			c0.56-0.56,1.11-1.11,1.67-1.67c0.56-0.56,0.97-1.25,1.25-2.08c0.28-0.83,0.28-1.67,0-2.5c-0.28-0.83-0.69-1.53-1.25-2.08
			c-0.56-0.56-1.11-1.11-1.67-1.67c-0.56-0.56-1.11-1.11-1.67-1.67c-0.56-0.56-1.11-1.11-1.67-1.67c-0.56-0.56-1.11-1.11-1.67-1.67
			c-0.56-0.56-1.11-1.11-1.67-1.67c-0.56-0.56-1.11-0.83-1.67-0.83c-0.56,0-0.97,0.42-1.25,1.25c-0.28,0.83-0.42,1.81-0.42,2.92
			c0,1.11,0,2.22,0,3.33c0,1.11,0,2.22,0,3.33c0,1.11,0,2.22,0,3.33c0,1.11,0,2.22,0,3.33c0,1.11,0,2.22,0,3.33
			c0,1.11,0.14,2.08,0.42,2.92c0.28,0.83,0.69,1.25,1.25,1.25c0.56,0,1.11-0.28,1.67-0.83C10.93,524.74,11.49,524.18,12.04,523.63z
			 M10.79,514.88c-0.28-0.83-0.28-1.67,0-2.5c0.28-0.83,0.69-1.25,1.25-1.25c0.56,0,0.97,0.42,1.25,1.25c0.28,0.83,0.28,1.67,0,2.5
			c-0.28,0.83-0.69,1.25-1.25,1.25C11.49,516.13,11.07,515.71,10.79,514.88z"/>
		<path class="st2" d="M18.71,556.96c0.56-0.56,0.97-1.25,1.25-2.08c0.28-0.83,0.28-1.67,0-2.5c-0.28-0.83-0.69-1.53-1.25-2.08
			c-0.56-0.56-1.11-1.11-1.67-1.67c-0.56-0.56-1.11-1.11-1.67-1.67c-0.56-0.56-1.11-1.11-1.67-1.67c-0.56-0.56-1.11-1.11-1.67-1.67
			c-0.56-0.56-1.11-1.11-1.67-1.67c-0.56-0.56-1.11-0.83-1.67-0.83c-0.56,0-0.97,0.42-1.25,1.25c-0.28,0.83-0.42,1.81-0.42,2.92
			c0,1.11,0,2.22,0,3.33c0,1.11,0,2.22,0,3.33c0,1.11,0,2.22,0,3.33c0,1.11,0,2.22,0,3.33c0,0.46,0,0.92,0,1.37h8.63
			c0.46-0.46,0.92-0.92,1.37-1.37C17.6,558.07,18.15,557.52,18.71,556.96z M10.79,554.88c-0.28-0.83-0.28-1.67,0-2.5
			c0.28-0.83,0.69-1.25,1.25-1.25c0.56,0,0.97,0.42,1.25,1.25c0.28,0.83,0.28,1.67,0,2.5c-0.28,0.83-0.69,1.25-1.25,1.25
			C11.49,556.13,11.07,555.71,10.79,554.88z"/>
	</g>
	<g>
		<path class="st0" d="M40.38,571.96c0-1.11,0-2.22,0-3.33c0-1.11,0-2.22,0-3.33c0-1.11-0.14-2.08-0.42-2.92
			c-0.28-0.83-0.69-1.25-1.25-1.25c-0.56,0-1.11,0.28-1.67,0.83c-0.56,0.56-1.11,1.11-1.67,1.67c-0.56,0.56-1.11,1.11-1.67,1.67
			c-0.56,0.56-1.11,1.11-1.67,1.67c-0.56,0.56-1.11,1.11-1.67,1.67c-0.56,0.56-1.11,1.11-1.67,1.67c-0.56,0.56-0.97,1.25-1.25,2.08
			c-0.28,0.83-0.28,1.67,0,2.5c0.28,0.83,0.69,1.53,1.25,2.08c0.56,0.56,1.11,1.11,1.67,1.67c0.56,0.56,1.11,1.11,1.67,1.67
			c0.56,0.56,1.11,1.11,1.67,1.67c0.56,0.56,1.11,1.11,1.67,1.67c0.56,0.56,1.11,1.11,1.67,1.67c0.56,0.56,1.11,0.83,1.67,0.83
			c0.56,0,0.97-0.42,1.25-1.25c0.28-0.83,0.42-1.81,0.42-2.92c0-1.11,0-2.22,0-3.33c0-1.11,0-2.22,0-3.33
			C40.38,574.18,40.38,573.07,40.38,571.96z M35.38,576.13c-0.56,0-0.97-0.42-1.25-1.25c-0.28-0.83-0.28-1.67,0-2.5
			c0.28-0.83,0.69-1.25,1.25-1.25c0.56,0,0.97,0.42,1.25,1.25c0.28,0.83,0.28,1.67,0,2.5C36.35,575.71,35.93,576.13,35.38,576.13z"
			/>
		<path class="st0" d="M35.38,603.63c-0.56,0.56-1.11,1.11-1.67,1.67c-0.56,0.56-1.11,1.11-1.67,1.67
			c-0.56,0.56-1.11,1.11-1.67,1.67c-0.56,0.56-1.11,1.11-1.67,1.67c-0.56,0.56-0.97,1.25-1.25,2.08c-0.28,0.83-0.28,1.67,0,2.5
			c0.28,0.83,0.69,1.53,1.25,2.08c0.56,0.56,1.11,1.11,1.67,1.67c0.56,0.56,1.11,1.11,1.67,1.67c0.56,0.56,1.11,1.11,1.67,1.67
			c0.56,0.56,1.11,1.11,1.67,1.67c0.56,0.56,1.11,1.11,1.67,1.67c0.56,0.56,1.11,0.83,1.67,0.83c0.56,0,0.97-0.42,1.25-1.25
			c0.28-0.83,0.42-1.81,0.42-2.92c0-1.11,0-2.22,0-3.33c0-1.11,0-2.22,0-3.33c0-1.11,0-2.22,0-3.33c0-1.11,0-2.22,0-3.33
			c0-1.11,0-2.22,0-3.33c0-1.11-0.14-2.08-0.42-2.92c-0.28-0.83-0.69-1.25-1.25-1.25c-0.56,0-1.11,0.28-1.67,0.83
			C36.49,602.52,35.93,603.07,35.38,603.63z M36.63,612.38c0.28,0.83,0.28,1.67,0,2.5c-0.28,0.83-0.69,1.25-1.25,1.25
			c-0.56,0-0.97-0.42-1.25-1.25c-0.28-0.83-0.28-1.67,0-2.5c0.28-0.83,0.69-1.25,1.25-1.25C35.93,611.13,36.35,611.54,36.63,612.38z
			"/>
		<path class="st1" d="M29.13,637.38c0.83-0.28,1.67-0.56,2.5-0.83c0.83-0.28,1.39-0.83,1.67-1.67c0.28-0.83,0.28-1.67,0-2.5
			c-0.28-0.83-0.83-1.39-1.67-1.67c-0.83-0.28-1.67-0.56-2.5-0.83c-0.83-0.28-1.39-0.83-1.67-1.67c-0.28-0.83-0.56-1.67-0.83-2.5
			c-0.28-0.83-0.69-1.53-1.25-2.08c-0.56-0.56-0.97-1.25-1.25-2.08c-0.28-0.83-0.56-1.67-0.83-2.5c-0.28-0.83-0.69-1.53-1.25-2.08
			c-0.56-0.56-0.97-1.25-1.25-2.08c-0.28-0.83-0.28-1.67,0-2.5c0.28-0.83,0.69-1.53,1.25-2.08c0.56-0.56,0.97-1.25,1.25-2.08
			c0.28-0.83,0.56-1.67,0.83-2.5c0.28-0.83,0.69-1.53,1.25-2.08c0.56-0.56,0.97-1.25,1.25-2.08c0.28-0.83,0.56-1.67,0.83-2.5
			c0.28-0.83,0.83-1.39,1.67-1.67c0.83-0.28,1.67-0.56,2.5-0.83c0.83-0.28,1.39-0.83,1.67-1.67c0.28-0.83,0.28-1.67,0-2.5
			c-0.28-0.83-0.83-1.39-1.67-1.67c-0.83-0.28-1.67-0.56-2.5-0.83c-0.83-0.28-1.39-0.83-1.67-1.67c-0.28-0.83-0.56-1.67-0.83-2.5
			c-0.28-0.83-0.69-1.53-1.25-2.08c-0.56-0.56-0.97-1.25-1.25-2.08c-0.28-0.83-0.56-1.67-0.83-2.5c-0.28-0.83-0.69-1.53-1.25-2.08
			c-0.56-0.56-0.97-1.25-1.25-2.08c-0.28-0.83-0.28-1.67,0-2.5c0.28-0.83,0.69-1.53,1.25-2.08c0.56-0.56,0.97-1.25,1.25-2.08
			c0.28-0.83,0.56-1.67,0.83-2.5c0.28-0.83,0.69-1.53,1.25-2.08c0.56-0.56,0.97-1.25,1.25-2.08c0.17-0.51,0.34-1.03,0.51-1.54h-3.33
			c-0.17,0.51-0.34,1.03-0.51,1.54c-0.28,0.83-0.69,1.53-1.25,2.08c-0.56,0.56-0.97,1.25-1.25,2.08c-0.28,0.83-0.56,1.67-0.83,2.5
			c-0.28,0.83-0.83,1.39-1.67,1.67c-0.83,0.28-1.67,0.56-2.5,0.83c-0.83,0.28-1.39,0.83-1.67,1.67c-0.28,0.83-0.28,1.67,0,2.5
			c0.28,0.83,0.83,1.39,1.67,1.67c0.83,0.28,1.67,0.56,2.5,0.83c0.83,0.28,1.39,0.83,1.67,1.67c0.28,0.83,0.56,1.67,0.83,2.5
			c0.28,0.83,0.69,1.53,1.25,2.08c0.56,0.56,0.97,1.25,1.25,2.08c0.28,0.83,0.56,1.67,0.83,2.5c0.28,0.83,0.69,1.53,1.25,2.08
			c0.56,0.56,0.97,1.25,1.25,2.08c0.28,0.83,0.28,1.67,0,2.5c-0.28,0.83-0.69,1.53-1.25,2.08c-0.56,0.56-0.97,1.25-1.25,2.08
			c-0.28,0.83-0.56,1.67-0.83,2.5c-0.28,0.83-0.69,1.53-1.25,2.08c-0.56,0.56-0.97,1.25-1.25,2.08c-0.28,0.83-0.56,1.67-0.83,2.5
			c-0.28,0.83-0.83,1.39-1.67,1.67c-0.83,0.28-1.67,0.56-2.5,0.83c-0.83,0.28-1.39,0.83-1.67,1.67c-0.28,0.83-0.28,1.67,0,2.5
			c0.28,0.83,0.83,1.39,1.67,1.67c0.83,0.28,1.67,0.56,2.5,0.83c0.83,0.28,1.39,0.83,1.67,1.67c0.28,0.83,0.56,1.67,0.83,2.5
			c0.28,0.83,0.69,1.53,1.25,2.08c0.56,0.56,0.97,1.25,1.25,2.08c0.28,0.83,0.56,1.67,0.83,2.5c0.28,0.83,0.69,1.53,1.25,2.08
			c0.56,0.56,0.97,1.25,1.25,2.08c0.28,0.83,0.28,1.67,0,2.5c-0.28,0.83-0.69,1.53-1.25,2.08c-0.56,0.56-0.97,1.25-1.25,2.08
			c-0.11,0.32-0.21,0.64-0.32,0.96h3.33c0.11-0.32,0.21-0.64,0.32-0.96C27.74,638.21,28.29,637.65,29.13,637.38z"/>
		<path class="st2" d="M7.46,564.88c0.28,0.83,0.69,1.25,1.25,1.25c0.56,0,1.11-0.28,1.67-0.83c0.56-0.56,1.11-1.11,1.67-1.67
			c0.56-0.56,1.11-1.11,1.67-1.67c0.56-0.56,1.11-1.11,1.67-1.67c0.1-0.1,0.2-0.2,0.29-0.29H7.04c0,0.65,0,1.31,0,1.96
			C7.04,563.07,7.18,564.04,7.46,564.88z"/>
		<path class="st3" d="M12.04,603.63c0.56-0.56,1.11-1.11,1.67-1.67c0.56-0.56,1.11-1.11,1.67-1.67c0.56-0.56,1.11-1.11,1.67-1.67
			c0.56-0.56,1.11-1.11,1.67-1.67c0.56-0.56,0.97-1.25,1.25-2.08c0.28-0.83,0.28-1.67,0-2.5c-0.28-0.83-0.69-1.53-1.25-2.08
			c-0.56-0.56-1.11-1.11-1.67-1.67c-0.56-0.56-1.11-1.11-1.67-1.67c-0.56-0.56-1.11-1.11-1.67-1.67c-0.56-0.56-1.11-1.11-1.67-1.67
			c-0.56-0.56-1.11-1.11-1.67-1.67c-0.56-0.56-1.11-0.83-1.67-0.83c-0.56,0-0.97,0.42-1.25,1.25c-0.28,0.83-0.42,1.81-0.42,2.92
			c0,1.11,0,2.22,0,3.33c0,1.11,0,2.22,0,3.33c0,1.11,0,2.22,0,3.33c0,1.11,0,2.22,0,3.33c0,1.11,0,2.22,0,3.33
			c0,1.11,0.14,2.08,0.42,2.92c0.28,0.83,0.69,1.25,1.25,1.25c0.56,0,1.11-0.28,1.67-0.83C10.93,604.74,11.49,604.18,12.04,603.63z
			 M10.79,594.88c-0.28-0.83-0.28-1.67,0-2.5c0.28-0.83,0.69-1.25,1.25-1.25c0.56,0,0.97,0.42,1.25,1.25c0.28,0.83,0.28,1.67,0,2.5
			c-0.28,0.83-0.69,1.25-1.25,1.25C11.49,596.13,11.07,595.71,10.79,594.88z"/>
		<path class="st2" d="M18.71,636.96c0.56-0.56,0.97-1.25,1.25-2.08c0.28-0.83,0.28-1.67,0-2.5c-0.28-0.83-0.69-1.53-1.25-2.08
			c-0.56-0.56-1.11-1.11-1.67-1.67c-0.56-0.56-1.11-1.11-1.67-1.67c-0.56-0.56-1.11-1.11-1.67-1.67c-0.56-0.56-1.11-1.11-1.67-1.67
			c-0.56-0.56-1.11-1.11-1.67-1.67c-0.56-0.56-1.11-0.83-1.67-0.83c-0.56,0-0.97,0.42-1.25,1.25c-0.28,0.83-0.42,1.81-0.42,2.92
			c0,1.11,0,2.22,0,3.33c0,1.11,0,2.22,0,3.33c0,1.11,0,2.22,0,3.33c0,1.11,0,2.22,0,3.33c0,0.46,0,0.92,0,1.37h8.63
			c0.46-0.46,0.92-0.92,1.37-1.37C17.6,638.07,18.15,637.52,18.71,636.96z M10.79,634.88c-0.28-0.83-0.28-1.67,0-2.5
			c0.28-0.83,0.69-1.25,1.25-1.25c0.56,0,0.97,0.42,1.25,1.25c0.28,0.83,0.28,1.67,0,2.5c-0.28,0.83-0.69,1.25-1.25,1.25
			C11.49,636.13,11.07,635.71,10.79,634.88z"/>
	</g>
	<g>
		<path class="st0" d="M40.38,651.96c0-1.11,0-2.22,0-3.33c0-1.11,0-2.22,0-3.33c0-1.11-0.14-2.08-0.42-2.92
			c-0.28-0.83-0.69-1.25-1.25-1.25c-0.56,0-1.11,0.28-1.67,0.83c-0.56,0.56-1.11,1.11-1.67,1.67c-0.56,0.56-1.11,1.11-1.67,1.67
			c-0.56,0.56-1.11,1.11-1.67,1.67c-0.56,0.56-1.11,1.11-1.67,1.67c-0.56,0.56-1.11,1.11-1.67,1.67c-0.56,0.56-0.97,1.25-1.25,2.08
			c-0.28,0.83-0.28,1.67,0,2.5c0.28,0.83,0.69,1.53,1.25,2.08c0.56,0.56,1.11,1.11,1.67,1.67c0.56,0.56,1.11,1.11,1.67,1.67
			c0.56,0.56,1.11,1.11,1.67,1.67c0.56,0.56,1.11,1.11,1.67,1.67c0.56,0.56,1.11,1.11,1.67,1.67c0.56,0.56,1.11,0.83,1.67,0.83
			c0.56,0,0.97-0.42,1.25-1.25c0.28-0.83,0.42-1.81,0.42-2.92c0-1.11,0-2.22,0-3.33c0-1.11,0-2.22,0-3.33
			C40.38,654.18,40.38,653.07,40.38,651.96z M35.38,656.13c-0.56,0-0.97-0.42-1.25-1.25c-0.28-0.83-0.28-1.67,0-2.5
			c0.28-0.83,0.69-1.25,1.25-1.25c0.56,0,0.97,0.42,1.25,1.25c0.28,0.83,0.28,1.67,0,2.5C36.35,655.71,35.93,656.13,35.38,656.13z"
			/>
		<path class="st0" d="M35.38,683.63c-0.56,0.56-1.11,1.11-1.67,1.67c-0.56,0.56-1.11,1.11-1.67,1.67
			c-0.56,0.56-1.11,1.11-1.67,1.67c-0.56,0.56-1.11,1.11-1.67,1.67c-0.56,0.56-0.97,1.25-1.25,2.08c-0.28,0.83-0.28,1.67,0,2.5
			c0.28,0.83,0.69,1.53,1.25,2.08c0.56,0.56,1.11,1.11,1.67,1.67c0.56,0.56,1.11,1.11,1.67,1.67c0.56,0.56,1.11,1.11,1.67,1.67
			c0.56,0.56,1.11,1.11,1.67,1.67c0.56,0.56,1.11,1.11,1.67,1.67c0.56,0.56,1.11,0.83,1.67,0.83c0.56,0,0.97-0.42,1.25-1.25
			c0.28-0.83,0.42-1.81,0.42-2.92c0-1.11,0-2.22,0-3.33c0-1.11,0-2.22,0-3.33c0-1.11,0-2.22,0-3.33c0-1.11,0-2.22,0-3.33
			c0-1.11,0-2.22,0-3.33c0-1.11-0.14-2.08-0.42-2.92c-0.28-0.83-0.69-1.25-1.25-1.25c-0.56,0-1.11,0.28-1.67,0.83
			C36.49,682.52,35.93,683.07,35.38,683.63z M36.63,692.38c0.28,0.83,0.28,1.67,0,2.5c-0.28,0.83-0.69,1.25-1.25,1.25
			c-0.56,0-0.97-0.42-1.25-1.25c-0.28-0.83-0.28-1.67,0-2.5c0.28-0.83,0.69-1.25,1.25-1.25C35.93,691.13,36.35,691.54,36.63,692.38z
			"/>
		<path class="st1" d="M29.13,717.38c0.83-0.28,1.67-0.56,2.5-0.83c0.83-0.28,1.39-0.83,1.67-1.67c0.28-0.83,0.28-1.67,0-2.5
			c-0.28-0.83-0.83-1.39-1.67-1.67c-0.83-0.28-1.67-0.56-2.5-0.83c-0.83-0.28-1.39-0.83-1.67-1.67c-0.28-0.83-0.56-1.67-0.83-2.5
			c-0.28-0.83-0.69-1.53-1.25-2.08c-0.56-0.56-0.97-1.25-1.25-2.08c-0.28-0.83-0.56-1.67-0.83-2.5c-0.28-0.83-0.69-1.53-1.25-2.08
			c-0.56-0.56-0.97-1.25-1.25-2.08c-0.28-0.83-0.28-1.67,0-2.5c0.28-0.83,0.69-1.53,1.25-2.08c0.56-0.56,0.97-1.25,1.25-2.08
			c0.28-0.83,0.56-1.67,0.83-2.5c0.28-0.83,0.69-1.53,1.25-2.08c0.56-0.56,0.97-1.25,1.25-2.08c0.28-0.83,0.56-1.67,0.83-2.5
			c0.28-0.83,0.83-1.39,1.67-1.67c0.83-0.28,1.67-0.56,2.5-0.83c0.83-0.28,1.39-0.83,1.67-1.67c0.28-0.83,0.28-1.67,0-2.5
			c-0.28-0.83-0.83-1.39-1.67-1.67c-0.83-0.28-1.67-0.56-2.5-0.83c-0.83-0.28-1.39-0.83-1.67-1.67c-0.28-0.83-0.56-1.67-0.83-2.5
			c-0.28-0.83-0.69-1.53-1.25-2.08c-0.56-0.56-0.97-1.25-1.25-2.08c-0.28-0.83-0.56-1.67-0.83-2.5c-0.28-0.83-0.69-1.53-1.25-2.08
			c-0.56-0.56-0.97-1.25-1.25-2.08c-0.28-0.83-0.28-1.67,0-2.5c0.28-0.83,0.69-1.53,1.25-2.08c0.56-0.56,0.97-1.25,1.25-2.08
			c0.28-0.83,0.56-1.67,0.83-2.5c0.28-0.83,0.69-1.53,1.25-2.08c0.56-0.56,0.97-1.25,1.25-2.08c0.17-0.51,0.34-1.03,0.51-1.54h-3.33
			c-0.17,0.51-0.34,1.03-0.51,1.54c-0.28,0.83-0.69,1.53-1.25,2.08c-0.56,0.56-0.97,1.25-1.25,2.08c-0.28,0.83-0.56,1.67-0.83,2.5
			c-0.28,0.83-0.83,1.39-1.67,1.67c-0.83,0.28-1.67,0.56-2.5,0.83c-0.83,0.28-1.39,0.83-1.67,1.67c-0.28,0.83-0.28,1.67,0,2.5
			c0.28,0.83,0.83,1.39,1.67,1.67c0.83,0.28,1.67,0.56,2.5,0.83c0.83,0.28,1.39,0.83,1.67,1.67c0.28,0.83,0.56,1.67,0.83,2.5
			c0.28,0.83,0.69,1.53,1.25,2.08c0.56,0.56,0.97,1.25,1.25,2.08c0.28,0.83,0.56,1.67,0.83,2.5c0.28,0.83,0.69,1.53,1.25,2.08
			c0.56,0.56,0.97,1.25,1.25,2.08c0.28,0.83,0.28,1.67,0,2.5c-0.28,0.83-0.69,1.53-1.25,2.08c-0.56,0.56-0.97,1.25-1.25,2.08
			c-0.28,0.83-0.56,1.67-0.83,2.5c-0.28,0.83-0.69,1.53-1.25,2.08c-0.56,0.56-0.97,1.25-1.25,2.08c-0.28,0.83-0.56,1.67-0.83,2.5
			c-0.28,0.83-0.83,1.39-1.67,1.67c-0.83,0.28-1.67,0.56-2.5,0.83c-0.83,0.28-1.39,0.83-1.67,1.67c-0.28,0.83-0.28,1.67,0,2.5
			c0.28,0.83,0.83,1.39,1.67,1.67c0.83,0.28,1.67,0.56,2.5,0.83c0.83,0.28,1.39,0.83,1.67,1.67c0.28,0.83,0.56,1.67,0.83,2.5
			c0.28,0.83,0.69,1.53,1.25,2.08c0.56,0.56,0.97,1.25,1.25,2.08c0.28,0.83,0.56,1.67,0.83,2.5c0.28,0.83,0.69,1.53,1.25,2.08
			c0.56,0.56,0.97,1.25,1.25,2.08c0.28,0.83,0.28,1.67,0,2.5c-0.28,0.83-0.69,1.53-1.25,2.08c-0.56,0.56-0.97,1.25-1.25,2.08
			c-0.11,0.32-0.21,0.64-0.32,0.96h3.33c0.11-0.32,0.21-0.64,0.32-0.96C27.74,718.21,28.29,717.65,29.13,717.38z"/>
		<path class="st2" d="M7.46,644.88c0.28,0.83,0.69,1.25,1.25,1.25c0.56,0,1.11-0.28,1.67-0.83c0.56-0.56,1.11-1.11,1.67-1.67
			c0.56-0.56,1.11-1.11,1.67-1.67c0.56-0.56,1.11-1.11,1.67-1.67c0.1-0.1,0.2-0.2,0.29-0.29H7.04c0,0.65,0,1.31,0,1.96
			C7.04,643.07,7.18,644.04,7.46,644.88z"/>
		<path class="st3" d="M12.04,683.63c0.56-0.56,1.11-1.11,1.67-1.67c0.56-0.56,1.11-1.11,1.67-1.67c0.56-0.56,1.11-1.11,1.67-1.67
			c0.56-0.56,1.11-1.11,1.67-1.67c0.56-0.56,0.97-1.25,1.25-2.08c0.28-0.83,0.28-1.67,0-2.5c-0.28-0.83-0.69-1.53-1.25-2.08
			c-0.56-0.56-1.11-1.11-1.67-1.67c-0.56-0.56-1.11-1.11-1.67-1.67c-0.56-0.56-1.11-1.11-1.67-1.67c-0.56-0.56-1.11-1.11-1.67-1.67
			c-0.56-0.56-1.11-1.11-1.67-1.67c-0.56-0.56-1.11-0.83-1.67-0.83c-0.56,0-0.97,0.42-1.25,1.25c-0.28,0.83-0.42,1.81-0.42,2.92
			c0,1.11,0,2.22,0,3.33c0,1.11,0,2.22,0,3.33c0,1.11,0,2.22,0,3.33c0,1.11,0,2.22,0,3.33c0,1.11,0,2.22,0,3.33
			c0,1.11,0.14,2.08,0.42,2.92c0.28,0.83,0.69,1.25,1.25,1.25c0.56,0,1.11-0.28,1.67-0.83C10.93,684.74,11.49,684.18,12.04,683.63z
			 M10.79,674.88c-0.28-0.83-0.28-1.67,0-2.5c0.28-0.83,0.69-1.25,1.25-1.25c0.56,0,0.97,0.42,1.25,1.25c0.28,0.83,0.28,1.67,0,2.5
			c-0.28,0.83-0.69,1.25-1.25,1.25C11.49,676.13,11.07,675.71,10.79,674.88z"/>
		<path class="st2" d="M18.71,716.96c0.56-0.56,0.97-1.25,1.25-2.08c0.28-0.83,0.28-1.67,0-2.5c-0.28-0.83-0.69-1.53-1.25-2.08
			c-0.56-0.56-1.11-1.11-1.67-1.67c-0.56-0.56-1.11-1.11-1.67-1.67c-0.56-0.56-1.11-1.11-1.67-1.67c-0.56-0.56-1.11-1.11-1.67-1.67
			c-0.56-0.56-1.11-1.11-1.67-1.67c-0.56-0.56-1.11-0.83-1.67-0.83c-0.56,0-0.97,0.42-1.25,1.25c-0.28,0.83-0.42,1.81-0.42,2.92
			c0,1.11,0,2.22,0,3.33c0,1.11,0,2.22,0,3.33c0,1.11,0,2.22,0,3.33c0,1.11,0,2.22,0,3.33c0,0.46,0,0.92,0,1.37h8.63
			c0.46-0.46,0.92-0.92,1.37-1.37C17.6,718.07,18.15,717.52,18.71,716.96z M10.79,714.88c-0.28-0.83-0.28-1.67,0-2.5
			c0.28-0.83,0.69-1.25,1.25-1.25c0.56,0,0.97,0.42,1.25,1.25c0.28,0.83,0.28,1.67,0,2.5c-0.28,0.83-0.69,1.25-1.25,1.25
			C11.49,716.13,11.07,715.71,10.79,714.88z"/>
	</g>
	<g>
		<path class="st0" d="M40.38,731.96c0-1.11,0-2.22,0-3.33c0-1.11,0-2.22,0-3.33c0-1.11-0.14-2.08-0.42-2.92
			c-0.28-0.83-0.69-1.25-1.25-1.25c-0.56,0-1.11,0.28-1.67,0.83c-0.56,0.56-1.11,1.11-1.67,1.67c-0.56,0.56-1.11,1.11-1.67,1.67
			c-0.56,0.56-1.11,1.11-1.67,1.67c-0.56,0.56-1.11,1.11-1.67,1.67c-0.56,0.56-1.11,1.11-1.67,1.67c-0.56,0.56-0.97,1.25-1.25,2.08
			c-0.28,0.83-0.28,1.67,0,2.5c0.28,0.83,0.69,1.53,1.25,2.08c0.56,0.56,1.11,1.11,1.67,1.67c0.56,0.56,1.11,1.11,1.67,1.67
			c0.56,0.56,1.11,1.11,1.67,1.67c0.56,0.56,1.11,1.11,1.67,1.67c0.56,0.56,1.11,1.11,1.67,1.67c0.56,0.56,1.11,0.83,1.67,0.83
			c0.56,0,0.97-0.42,1.25-1.25c0.28-0.83,0.42-1.81,0.42-2.92c0-1.11,0-2.22,0-3.33c0-1.11,0-2.22,0-3.33
			C40.38,734.18,40.38,733.07,40.38,731.96z M35.38,736.13c-0.56,0-0.97-0.42-1.25-1.25c-0.28-0.83-0.28-1.67,0-2.5
			c0.28-0.83,0.69-1.25,1.25-1.25c0.56,0,0.97,0.42,1.25,1.25c0.28,0.83,0.28,1.67,0,2.5C36.35,735.71,35.93,736.13,35.38,736.13z"
			/>
		<path class="st0" d="M35.38,763.63c-0.56,0.56-1.11,1.11-1.67,1.67c-0.56,0.56-1.11,1.11-1.67,1.67
			c-0.56,0.56-1.11,1.11-1.67,1.67c-0.56,0.56-1.11,1.11-1.67,1.67c-0.56,0.56-0.97,1.25-1.25,2.08c-0.28,0.83-0.28,1.67,0,2.5
			c0.28,0.83,0.69,1.53,1.25,2.08c0.56,0.56,1.11,1.11,1.67,1.67c0.56,0.56,1.11,1.11,1.67,1.67c0.56,0.56,1.11,1.11,1.67,1.67
			c0.56,0.56,1.11,1.11,1.67,1.67c0.56,0.56,1.11,1.11,1.67,1.67c0.56,0.56,1.11,0.83,1.67,0.83c0.56,0,0.97-0.42,1.25-1.25
			c0.28-0.83,0.42-1.81,0.42-2.92c0-1.11,0-2.22,0-3.33c0-1.11,0-2.22,0-3.33c0-1.11,0-2.22,0-3.33c0-1.11,0-2.22,0-3.33
			c0-1.11,0-2.22,0-3.33c0-1.11-0.14-2.08-0.42-2.92c-0.28-0.83-0.69-1.25-1.25-1.25c-0.56,0-1.11,0.28-1.67,0.83
			C36.49,762.52,35.93,763.07,35.38,763.63z M36.63,772.38c0.28,0.83,0.28,1.67,0,2.5c-0.28,0.83-0.69,1.25-1.25,1.25
			c-0.56,0-0.97-0.42-1.25-1.25c-0.28-0.83-0.28-1.67,0-2.5c0.28-0.83,0.69-1.25,1.25-1.25C35.93,771.13,36.35,771.54,36.63,772.38z
			"/>
		<path class="st1" d="M29.13,797.38c0.83-0.28,1.67-0.56,2.5-0.83c0.83-0.28,1.39-0.83,1.67-1.67c0.28-0.83,0.28-1.67,0-2.5
			c-0.28-0.83-0.83-1.39-1.67-1.67c-0.83-0.28-1.67-0.56-2.5-0.83c-0.83-0.28-1.39-0.83-1.67-1.67c-0.28-0.83-0.56-1.67-0.83-2.5
			c-0.28-0.83-0.69-1.53-1.25-2.08c-0.56-0.56-0.97-1.25-1.25-2.08c-0.28-0.83-0.56-1.67-0.83-2.5c-0.28-0.83-0.69-1.53-1.25-2.08
			c-0.56-0.56-0.97-1.25-1.25-2.08c-0.28-0.83-0.28-1.67,0-2.5c0.28-0.83,0.69-1.53,1.25-2.08c0.56-0.56,0.97-1.25,1.25-2.08
			c0.28-0.83,0.56-1.67,0.83-2.5c0.28-0.83,0.69-1.53,1.25-2.08c0.56-0.56,0.97-1.25,1.25-2.08c0.28-0.83,0.56-1.67,0.83-2.5
			c0.28-0.83,0.83-1.39,1.67-1.67c0.83-0.28,1.67-0.56,2.5-0.83c0.83-0.28,1.39-0.83,1.67-1.67c0.28-0.83,0.28-1.67,0-2.5
			c-0.28-0.83-0.83-1.39-1.67-1.67c-0.83-0.28-1.67-0.56-2.5-0.83c-0.83-0.28-1.39-0.83-1.67-1.67c-0.28-0.83-0.56-1.67-0.83-2.5
			c-0.28-0.83-0.69-1.53-1.25-2.08c-0.56-0.56-0.97-1.25-1.25-2.08c-0.28-0.83-0.56-1.67-0.83-2.5c-0.28-0.83-0.69-1.53-1.25-2.08
			c-0.56-0.56-0.97-1.25-1.25-2.08c-0.28-0.83-0.28-1.67,0-2.5c0.28-0.83,0.69-1.53,1.25-2.08c0.56-0.56,0.97-1.25,1.25-2.08
			c0.28-0.83,0.56-1.67,0.83-2.5c0.28-0.83,0.69-1.53,1.25-2.08c0.56-0.56,0.97-1.25,1.25-2.08c0.17-0.51,0.34-1.03,0.51-1.54h-3.33
			c-0.17,0.51-0.34,1.03-0.51,1.54c-0.28,0.83-0.69,1.53-1.25,2.08c-0.56,0.56-0.97,1.25-1.25,2.08c-0.28,0.83-0.56,1.67-0.83,2.5
			c-0.28,0.83-0.83,1.39-1.67,1.67c-0.83,0.28-1.67,0.56-2.5,0.83c-0.83,0.28-1.39,0.83-1.67,1.67c-0.28,0.83-0.28,1.67,0,2.5
			c0.28,0.83,0.83,1.39,1.67,1.67c0.83,0.28,1.67,0.56,2.5,0.83c0.83,0.28,1.39,0.83,1.67,1.67c0.28,0.83,0.56,1.67,0.83,2.5
			c0.28,0.83,0.69,1.53,1.25,2.08c0.56,0.56,0.97,1.25,1.25,2.08c0.28,0.83,0.56,1.67,0.83,2.5c0.28,0.83,0.69,1.53,1.25,2.08
			c0.56,0.56,0.97,1.25,1.25,2.08c0.28,0.83,0.28,1.67,0,2.5c-0.28,0.83-0.69,1.53-1.25,2.08c-0.56,0.56-0.97,1.25-1.25,2.08
			c-0.28,0.83-0.56,1.67-0.83,2.5c-0.28,0.83-0.69,1.53-1.25,2.08c-0.56,0.56-0.97,1.25-1.25,2.08c-0.28,0.83-0.56,1.67-0.83,2.5
			c-0.28,0.83-0.83,1.39-1.67,1.67c-0.83,0.28-1.67,0.56-2.5,0.83c-0.83,0.28-1.39,0.83-1.67,1.67c-0.28,0.83-0.28,1.67,0,2.5
			c0.28,0.83,0.83,1.39,1.67,1.67c0.83,0.28,1.67,0.56,2.5,0.83c0.83,0.28,1.39,0.83,1.67,1.67c0.28,0.83,0.56,1.67,0.83,2.5
			c0.28,0.83,0.69,1.53,1.25,2.08c0.56,0.56,0.97,1.25,1.25,2.08c0.28,0.83,0.56,1.67,0.83,2.5c0.28,0.83,0.69,1.53,1.25,2.08
			c0.56,0.56,0.97,1.25,1.25,2.08c0.28,0.83,0.28,1.67,0,2.5c-0.28,0.83-0.69,1.53-1.25,2.08c-0.56,0.56-0.97,1.25-1.25,2.08
			c-0.11,0.32-0.21,0.64-0.32,0.96h3.33c0.11-0.32,0.21-0.64,0.32-0.96C27.74,798.21,28.29,797.65,29.13,797.38z"/>
		<path class="st2" d="M7.46,724.88c0.28,0.83,0.69,1.25,1.25,1.25c0.56,0,1.11-0.28,1.67-0.83c0.56-0.56,1.11-1.11,1.67-1.67
			c0.56-0.56,1.11-1.11,1.67-1.67c0.56-0.56,1.11-1.11,1.67-1.67c0.1-0.1,0.2-0.2,0.29-0.29H7.04c0,0.65,0,1.31,0,1.96
			C7.04,723.07,7.18,724.04,7.46,724.88z"/>
		<path class="st3" d="M12.04,763.63c0.56-0.56,1.11-1.11,1.67-1.67c0.56-0.56,1.11-1.11,1.67-1.67c0.56-0.56,1.11-1.11,1.67-1.67
			c0.56-0.56,1.11-1.11,1.67-1.67c0.56-0.56,0.97-1.25,1.25-2.08c0.28-0.83,0.28-1.67,0-2.5c-0.28-0.83-0.69-1.53-1.25-2.08
			c-0.56-0.56-1.11-1.11-1.67-1.67c-0.56-0.56-1.11-1.11-1.67-1.67c-0.56-0.56-1.11-1.11-1.67-1.67c-0.56-0.56-1.11-1.11-1.67-1.67
			c-0.56-0.56-1.11-1.11-1.67-1.67c-0.56-0.56-1.11-0.83-1.67-0.83c-0.56,0-0.97,0.42-1.25,1.25c-0.28,0.83-0.42,1.81-0.42,2.92
			c0,1.11,0,2.22,0,3.33c0,1.11,0,2.22,0,3.33c0,1.11,0,2.22,0,3.33c0,1.11,0,2.22,0,3.33c0,1.11,0,2.22,0,3.33
			c0,1.11,0.14,2.08,0.42,2.92c0.28,0.83,0.69,1.25,1.25,1.25c0.56,0,1.11-0.28,1.67-0.83C10.93,764.74,11.49,764.18,12.04,763.63z
			 M10.79,754.88c-0.28-0.83-0.28-1.67,0-2.5c0.28-0.83,0.69-1.25,1.25-1.25c0.56,0,0.97,0.42,1.25,1.25c0.28,0.83,0.28,1.67,0,2.5
			c-0.28,0.83-0.69,1.25-1.25,1.25C11.49,756.13,11.07,755.71,10.79,754.88z"/>
		<path class="st2" d="M18.71,796.96c0.56-0.56,0.97-1.25,1.25-2.08c0.28-0.83,0.28-1.67,0-2.5c-0.28-0.83-0.69-1.53-1.25-2.08
			c-0.56-0.56-1.11-1.11-1.67-1.67c-0.56-0.56-1.11-1.11-1.67-1.67c-0.56-0.56-1.11-1.11-1.67-1.67c-0.56-0.56-1.11-1.11-1.67-1.67
			c-0.56-0.56-1.11-1.11-1.67-1.67c-0.56-0.56-1.11-0.83-1.67-0.83c-0.56,0-0.97,0.42-1.25,1.25c-0.28,0.83-0.42,1.81-0.42,2.92
			c0,1.11,0,2.22,0,3.33c0,1.11,0,2.22,0,3.33c0,1.11,0,2.22,0,3.33c0,1.11,0,2.22,0,3.33c0,0.46,0,0.92,0,1.37h8.63
			c0.46-0.46,0.92-0.92,1.37-1.37C17.6,798.07,18.15,797.52,18.71,796.96z M10.79,794.88c-0.28-0.83-0.28-1.67,0-2.5
			c0.28-0.83,0.69-1.25,1.25-1.25c0.56,0,0.97,0.42,1.25,1.25c0.28,0.83,0.28,1.67,0,2.5c-0.28,0.83-0.69,1.25-1.25,1.25
			C11.49,796.13,11.07,795.71,10.79,794.88z"/>
	</g>
</g>
</svg>
